<svg width="19" height="18" viewBox="0 0 19 18" fill="none" xmlns="http://www.w3.org/2000/svg">
<g clip-path="url(#clip0_311_4)">
<path d="M16.844 14.0277C16.5718 14.6565 16.2495 15.2354 15.8762 15.7676C15.3674 16.4931 14.9507 16.9953 14.6296 17.2742C14.1318 17.732 13.5985 17.9664 13.0274 17.9798C12.6174 17.9798 12.123 17.8631 11.5475 17.6264C10.97 17.3909 10.4394 17.2742 9.95419 17.2742C9.44532 17.2742 8.89956 17.3909 8.3158 17.6264C7.73115 17.8631 7.26017 17.9864 6.90007 17.9986C6.35242 18.022 5.80655 17.7809 5.26167 17.2742C4.91391 16.9709 4.47892 16.4509 3.95783 15.7143C3.39873 14.9276 2.93908 14.0154 2.57898 12.9755C2.19333 11.8522 2 10.7644 2 9.71134C2 8.50504 2.26066 7.46463 2.78275 6.59276C3.19307 5.89245 3.73894 5.34002 4.42214 4.93448C5.10535 4.52894 5.84354 4.32228 6.63852 4.30906C7.0735 4.30906 7.64393 4.44361 8.3528 4.70804C9.05966 4.97337 9.51354 5.10792 9.71253 5.10792C9.8613 5.10792 10.3655 4.95059 11.2203 4.63693C12.0286 4.34605 12.7108 4.22561 13.2696 4.27306C14.784 4.39528 15.9218 4.99226 16.6784 6.06778C15.324 6.88842 14.654 8.03783 14.6674 9.51234C14.6796 10.6609 15.0962 11.6166 15.9151 12.3755C16.2862 12.7277 16.7006 12.9999 17.1617 13.1932C17.0617 13.4832 16.9562 13.761 16.844 14.0277ZM13.3707 0.360286C13.3707 1.26049 13.0419 2.10101 12.3863 2.87899C11.5952 3.80385 10.6384 4.33828 9.60076 4.25395C9.58754 4.14595 9.57987 4.03229 9.57987 3.91285C9.57987 3.04865 9.95608 2.12379 10.6242 1.36759C10.9577 0.984711 11.3819 0.666354 11.8964 0.412395C12.4097 0.162224 12.8952 0.0238749 13.3519 0.000183105C13.3652 0.120527 13.3707 0.240878 13.3707 0.360274V0.360286Z" fill="black"/>
</g>
<defs>
<clipPath id="clip0_311_4">
<rect width="18" height="18" fill="white" transform="translate(0.5)"/>
</clipPath>
</defs>
</svg>
