<svg width="13" height="10" viewBox="0 0 13 10" fill="none" xmlns="http://www.w3.org/2000/svg">
<path d="M11.5714 0H1.28571C0.578571 0 0.00642856 0.5625 0.00642856 1.25L0 8.75C0 9.4375 0.578571 10 1.28571 10H11.5714C12.2786 10 12.8571 9.4375 12.8571 8.75V1.25C12.8571 0.5625 12.2786 0 11.5714 0ZM11.3143 2.65625L6.76928 5.41875C6.56357 5.54375 6.29357 5.54375 6.08786 5.41875L1.54286 2.65625C1.38214 2.55625 1.28571 2.3875 1.28571 2.20625C1.28571 1.7875 1.755 1.5375 2.12143 1.75625L6.42857 4.375L10.7357 1.75625C11.1021 1.5375 11.5714 1.7875 11.5714 2.20625C11.5714 2.3875 11.475 2.55625 11.3143 2.65625Z" fill="#CCCCCC"/>
</svg>
