<svg width="20" height="20" viewBox="0 0 20 20" fill="none" xmlns="http://www.w3.org/2000/svg">
<circle cx="10.2729" cy="10.1313" r="9.29293" fill="#990033"/>
<path d="M13.7115 7.966L12.4384 6.69287C12.2722 6.53679 12.0545 6.44724 11.8266 6.44124C11.5987 6.43524 11.3765 6.51322 11.2024 6.66034L7.02059 10.8422C6.8704 10.9936 6.77688 11.1921 6.75574 11.4044L6.55594 13.342C6.54968 13.41 6.55851 13.4786 6.5818 13.5429C6.60509 13.6071 6.64227 13.6654 6.69069 13.7137C6.7341 13.7567 6.78559 13.7908 6.8422 13.8139C6.89882 13.8371 6.95943 13.8488 7.02059 13.8484H7.0624L8.99998 13.6719C9.21223 13.6507 9.41074 13.5572 9.5622 13.407L13.744 9.22519C13.9063 9.05372 13.994 8.8249 13.9879 8.58887C13.9819 8.35285 13.8824 8.12886 13.7115 7.966ZM8.91634 12.7426L7.5224 12.8727L7.64786 11.4787L10.2731 8.886L11.5277 10.1405L8.91634 12.7426ZM12.1317 9.51792L10.8864 8.27267L11.7925 7.34337L13.061 8.61186L12.1317 9.51792Z" fill="white"/>
</svg>
