<svg width="14" height="16" viewBox="0 0 14 16" fill="none" xmlns="http://www.w3.org/2000/svg">
<path d="M11.3575 2.3525C11.2975 2.3525 11.2375 2.3375 11.185 2.3075C9.74499 1.565 8.49999 1.25 7.00749 1.25C5.52249 1.25 4.11249 1.6025 2.82999 2.3075C2.64999 2.405 2.42499 2.3375 2.31999 2.1575C2.22249 1.9775 2.28999 1.745 2.46999 1.6475C3.86499 0.89 5.39499 0.5 7.00749 0.5C8.60499 0.5 9.99999 0.8525 11.53 1.64C11.7175 1.7375 11.785 1.9625 11.6875 2.1425C11.62 2.2775 11.4925 2.3525 11.3575 2.3525ZM0.624989 6.29C0.549989 6.29 0.474989 6.2675 0.407489 6.2225C0.234989 6.1025 0.197489 5.87 0.317489 5.6975C1.05999 4.6475 2.00499 3.8225 3.12999 3.245C5.48499 2.03 8.49999 2.0225 10.8625 3.2375C11.9875 3.815 12.9325 4.6325 13.675 5.675C13.795 5.84 13.7575 6.08 13.585 6.2C13.4125 6.32 13.18 6.2825 13.06 6.11C12.385 5.165 11.53 4.4225 10.5175 3.905C8.36499 2.8025 5.61249 2.8025 3.46749 3.9125C2.44749 4.4375 1.59249 5.1875 0.917489 6.1325C0.857489 6.2375 0.744989 6.29 0.624989 6.29ZM5.31249 15.3425C5.21499 15.3425 5.11749 15.305 5.04999 15.23C4.39749 14.5775 4.04499 14.1575 3.54249 13.25C3.02499 12.3275 2.75499 11.2025 2.75499 9.995C2.75499 7.7675 4.65999 5.9525 6.99999 5.9525C9.33999 5.9525 11.245 7.7675 11.245 9.995C11.245 10.205 11.08 10.37 10.87 10.37C10.66 10.37 10.495 10.205 10.495 9.995C10.495 8.18 8.92749 6.7025 6.99999 6.7025C5.07249 6.7025 3.50499 8.18 3.50499 9.995C3.50499 11.075 3.74499 12.0725 4.20249 12.8825C4.68249 13.745 5.01249 14.1125 5.58999 14.6975C5.73249 14.8475 5.73249 15.08 5.58999 15.23C5.50749 15.305 5.40999 15.3425 5.31249 15.3425ZM10.69 13.955C9.79749 13.955 9.00999 13.73 8.36499 13.2875C7.24749 12.53 6.57999 11.3 6.57999 9.995C6.57999 9.785 6.74499 9.62 6.95499 9.62C7.16499 9.62 7.32999 9.785 7.32999 9.995C7.32999 11.0525 7.86999 12.05 8.78499 12.665C9.31749 13.025 9.93999 13.1975 10.69 13.1975C10.87 13.1975 11.17 13.175 11.47 13.1225C11.6725 13.085 11.8675 13.22 11.905 13.43C11.9425 13.6325 11.8075 13.8275 11.5975 13.865C11.17 13.9475 10.795 13.955 10.69 13.955ZM9.18249 15.5C9.15249 15.5 9.11499 15.4925 9.08499 15.485C7.89249 15.155 7.11249 14.7125 6.29499 13.91C5.24499 12.8675 4.66749 11.48 4.66749 9.995C4.66749 8.78 5.70249 7.79 6.97749 7.79C8.25249 7.79 9.28749 8.78 9.28749 9.995C9.28749 10.7975 9.98499 11.45 10.8475 11.45C11.71 11.45 12.4075 10.7975 12.4075 9.995C12.4075 7.1675 9.96999 4.8725 6.96999 4.8725C4.83999 4.8725 2.88999 6.0575 2.01249 7.895C1.71999 8.5025 1.56999 9.215 1.56999 9.995C1.56999 10.58 1.62249 11.5025 2.07249 12.7025C2.14749 12.8975 2.04999 13.115 1.85499 13.1825C1.65999 13.2575 1.44249 13.1525 1.37499 12.965C1.00749 11.9825 0.827489 11.0075 0.827489 9.995C0.827489 9.095 0.999989 8.2775 1.33749 7.565C2.33499 5.4725 4.54749 4.115 6.96999 4.115C10.3825 4.115 13.1575 6.7475 13.1575 9.9875C13.1575 11.2025 12.1225 12.1925 10.8475 12.1925C9.57249 12.1925 8.53749 11.2025 8.53749 9.9875C8.53749 9.185 7.83999 8.5325 6.97749 8.5325C6.11499 8.5325 5.41749 9.185 5.41749 9.9875C5.41749 11.27 5.91249 12.47 6.81999 13.37C7.53249 14.075 8.21499 14.465 9.27249 14.7575C9.47499 14.81 9.58749 15.02 9.53499 15.215C9.49749 15.3875 9.33999 15.5 9.18249 15.5Z" fill="#777777"/>
</svg>
