<svg width="19" height="18" viewBox="0 0 19 18" fill="none" xmlns="http://www.w3.org/2000/svg">
<g clip-path="url(#clip0_311_18)">
<path d="M9.49988 7.36362V10.8491H14.3435C14.1308 11.97 13.4925 12.9191 12.5353 13.5573L15.4562 15.8237C17.158 14.2528 18.1398 11.9455 18.1398 9.20462C18.1398 8.56645 18.0826 7.95275 17.9762 7.36371L9.49988 7.36362Z" fill="#4285F4"/>
<path d="M4.45602 10.713L3.79725 11.2173L1.46539 13.0336C2.9463 15.9709 5.98153 18 9.49968 18C11.9296 18 13.9669 17.1982 15.456 15.8237L12.5351 13.5573C11.7333 14.0973 10.7105 14.4246 9.49968 14.4246C7.15969 14.4246 5.17157 12.8455 4.4597 10.7182L4.45602 10.713Z" fill="#34A853"/>
<path d="M1.46538 4.96637C0.851781 6.17723 0.5 7.54361 0.5 8.99995C0.5 10.4563 0.851781 11.8227 1.46538 13.0335C1.46538 13.0417 4.45998 10.7099 4.45998 10.7099C4.27998 10.1699 4.17359 9.59721 4.17359 8.99986C4.17359 8.40251 4.27998 7.82981 4.45998 7.28982L1.46538 4.96637Z" fill="#FBBC05"/>
<path d="M9.49987 3.58363C10.8253 3.58363 12.0035 4.0418 12.9444 4.92545L15.5217 2.34821C13.9589 0.891874 11.9299 0 9.49987 0C5.98171 0 2.9463 2.02091 1.46539 4.96637L4.4599 7.29001C5.17167 5.16271 7.15988 3.58363 9.49987 3.58363Z" fill="#EA4335"/>
</g>
<defs>
<clipPath id="clip0_311_18">
<rect width="18" height="18" fill="white" transform="translate(0.5)"/>
</clipPath>
</defs>
</svg>
