<svg width="24" height="18" viewBox="0 0 24 18" fill="none" xmlns="http://www.w3.org/2000/svg">
<path d="M14.421 0.85H3.57896C2.07415 0.85 0.85 2.0739 0.85 3.57876V14.4212C0.85 15.9261 2.07415 17.15 3.57896 17.15H14.421C15.9259 17.15 17.15 15.9261 17.15 14.4212V14.1358C17.15 13.8894 16.9501 13.6895 16.7037 13.6895C16.4573 13.6895 16.2574 13.8894 16.2574 14.1358V14.4212C16.2574 15.4337 15.4336 16.2574 14.421 16.2574H3.57896C2.56645 16.2574 1.74259 15.4335 1.74259 14.4212V3.57876C1.74259 2.56626 2.56644 1.7426 3.57896 1.7426H14.421C15.4336 1.7426 16.2574 2.56649 16.2574 3.57876V3.86416C16.2574 4.11056 16.4573 4.31046 16.7037 4.31046C16.9501 4.31046 17.15 4.11056 17.15 3.86416V3.57876C17.15 2.0739 15.9259 0.85 14.421 0.85Z" fill="#990033" stroke="#990033" stroke-width="0.3"/>
<path d="M19.5549 4.68968L19.555 4.6897L23.5483 8.68526L23.5484 8.68534C23.7225 8.85974 23.7226 9.14213 23.5483 9.31644C23.5483 9.31645 23.5483 9.31645 23.5483 9.31645L19.5552 13.3101L19.5552 13.3101C19.4681 13.3972 19.3535 13.4408 19.2396 13.4408C19.1256 13.4408 19.0111 13.3972 18.924 13.3101L18.9239 13.31C18.7498 13.1356 18.7496 12.8532 18.924 12.6789C18.924 12.6789 18.924 12.6789 18.924 12.6789L22.1564 9.44619H17.7698H13.1711V11.2826C13.1711 11.529 12.9712 11.7289 12.7248 11.7289C12.4784 11.7289 12.2785 11.529 12.2785 11.2826V6.71743C12.2785 6.47072 12.4785 6.27113 12.7248 6.27113C12.9712 6.27113 13.1711 6.47103 13.1711 6.71743V8.55359H17.7689H22.1546L18.9237 5.32089C18.9237 5.32088 18.9237 5.32088 18.9237 5.32087C18.7495 5.14661 18.7495 4.86392 18.9237 4.68968C19.098 4.51542 19.3807 4.51542 19.5549 4.68968Z" fill="#990033" stroke="#990033" stroke-width="0.3"/>
</svg>
