<svg width="145" height="137" viewBox="0 0 145 137" fill="none" xmlns="http://www.w3.org/2000/svg">
<path fill-rule="evenodd" clip-rule="evenodd" d="M4.73993 68.2406L72.0413 0.666504L139.289 68.2406L121.586 86.0334C129.371 94.4384 134.915 104.685 137.704 115.82L116.475 109.806L107.945 128.637C107.186 121.176 104.136 114.138 99.2179 108.499L72.0409 135.868L44.8284 108.517C39.9271 114.151 36.8845 121.174 36.1196 128.619L27.5534 109.806L6.2004 116.321C8.94538 104.99 14.5454 94.5599 22.4617 86.0338L4.73993 68.2406Z" fill="#0A1F62" stroke="#0A1F62" stroke-width="0.3"/>
<path fill-rule="evenodd" clip-rule="evenodd" d="M144.578 51.2175V41.1215L142.815 41.0857C142.851 30.2913 142.887 19.5152 142.922 8.75764H122.103V11.1204L102.655 11.1384V11.246H98.1491V11.1384L82.7264 11.1027L61.1765 11.1922C55.7625 11.1742 52.8416 11.1565 47.41 11.1384V11.4439C44.3468 11.4259 38.7903 11.4259 35.745 11.4259C35.3828 11.3373 35.0131 11.2834 34.6408 11.2649C32.2545 11.2649 29.8688 11.2649 27.4816 11.2829C26.9828 11.5884 26.4843 11.8915 26.0035 12.2138H25.8965C25.1829 11.7232 24.3662 11.4046 23.5102 11.2829C21.8716 11.2649 20.2333 11.2472 18.5947 11.2472V8.84868L7.6963 8.75764C3.47536 8.72189 1 11.747 1 15.3092V51.2175H144.578Z" fill="#0A1F62" stroke="#0A1F62" stroke-width="0.3"/>
<path fill-rule="evenodd" clip-rule="evenodd" d="M8.28381 68.2401L72.0411 4.21045L135.763 68.2401L72.0411 132.324L8.28381 68.2401Z" fill="#CA0015" stroke="#CA0015" stroke-width="0.3"/>
<path fill-rule="evenodd" clip-rule="evenodd" d="M11.8102 68.2408L72.0413 7.7373L132.219 68.2408L72.0413 128.78L11.8102 68.2408Z" fill="white"/>
<path fill-rule="evenodd" clip-rule="evenodd" d="M111.862 54.9225L72.0406 14.8435L32.1661 54.9225C33.9156 56.6697 35.304 58.7474 36.2514 61.036C37.1988 63.3246 37.6865 65.7789 37.6865 68.2578C37.6865 70.7366 37.1988 73.1909 36.2514 75.4795C35.304 77.7681 33.9156 79.8458 32.1661 81.593L58.7553 108.318C60.4919 106.56 62.5576 105.164 64.8332 104.212C67.1088 103.26 69.5495 102.769 72.0145 102.769C74.4795 102.769 76.9201 103.26 79.1958 104.212C81.4714 105.164 83.537 106.56 85.2737 108.318L111.862 81.5942C108.349 78.0541 106.377 73.2585 106.377 68.259C106.377 63.2594 108.349 58.4639 111.862 54.9237V54.9225ZM15.3359 68.2403L72.0406 11.2993L128.692 68.2403L72.0409 125.217L15.3359 68.2403Z" fill="#FFB301"/>
<path d="M32.166 54.9228L72.041 14.8438" stroke="#FFB301" stroke-width="0.3"/>
<path d="M111.862 54.9228L72.0404 14.8438L32.1653 54.9228" stroke="#FFB301" stroke-width="0.3"/>
<path d="M32.1653 54.9224C33.9148 56.6695 35.3031 58.7472 36.2506 61.0358C37.198 63.3244 37.6857 65.7788 37.6857 68.2576C37.6857 70.7364 37.198 73.1908 36.2506 75.4794C35.3031 77.768 33.9148 79.8457 32.1653 81.5928" stroke="#FFB301" stroke-width="0.3"/>
<path d="M32.166 81.5942L58.7554 108.32" stroke="#FFB301" stroke-width="0.3"/>
<path d="M58.7551 108.32C60.4917 106.562 62.5573 105.166 64.833 104.214C67.1086 103.261 69.5493 102.771 72.0143 102.771C74.4793 102.771 76.9199 103.261 79.1956 104.214C81.4712 105.166 83.5368 106.562 85.2734 108.32" stroke="#FFB301" stroke-width="0.3"/>
<path d="M85.2735 108.32L111.863 81.5942" stroke="#FFB301" stroke-width="0.3"/>
<path d="M111.862 81.5943C108.35 78.0542 106.378 73.2586 106.378 68.2591C106.378 63.2595 108.35 58.4639 111.862 54.9238" stroke="#FFB301" stroke-width="0.3"/>
<path fill-rule="evenodd" clip-rule="evenodd" d="M15.3359 68.2406L72.0406 11.2993L128.692 68.2406L72.0409 125.217L15.3359 68.2406Z" stroke="#FFB301" stroke-width="0.3"/>
<path fill-rule="evenodd" clip-rule="evenodd" d="M111.863 54.9228L72.041 14.8438L32.1659 54.9228C33.9153 56.67 35.3037 58.7477 36.2511 61.0363C37.1985 63.3249 37.6863 65.7792 37.6863 68.258C37.6863 70.7369 37.1985 73.1912 36.2511 75.4798C35.3037 77.7684 33.9153 79.8461 32.1659 81.5933L58.755 108.319C60.4916 106.56 62.5573 105.165 64.8329 104.212C67.1086 103.26 69.5492 102.77 72.0142 102.77C74.4792 102.77 76.9199 103.26 79.1955 104.212C81.4711 105.165 83.5368 106.56 85.2734 108.319L111.863 81.5933C108.35 78.0531 106.378 73.2576 106.378 68.258C106.378 63.2585 108.35 58.463 111.863 54.9228Z" fill="#469C23" stroke="#469C23" stroke-width="0.3"/>
<path fill-rule="evenodd" clip-rule="evenodd" d="M125.166 68.2408L116.869 76.581L108.552 68.2408L116.869 59.9351L125.166 68.2408Z" fill="white"/>
<path fill-rule="evenodd" clip-rule="evenodd" d="M18.8804 68.2408L27.1782 59.9351L35.476 68.2408L27.1782 76.581L18.8804 68.2408Z" fill="white"/>
<path fill-rule="evenodd" clip-rule="evenodd" d="M141.978 48.6395V43.6812L140.269 43.6454L140.34 11.4068L134.819 11.3711L133.305 12.821L133.287 11.4068H124.703V13.8948H104.686V14.6109C104.321 14.2056 103.82 13.9505 103.279 13.8948L97.899 13.9129C97.2177 13.9585 96.5688 14.2219 96.047 14.6647V13.8948L81.6927 13.9129H75.4785C74.2141 13.9844 73.1633 14.4142 72.4694 15.3985C71.6679 14.4139 70.6171 13.9843 69.3527 13.8948H62.2646C53.1996 13.8591 44.9717 13.8948 36.0137 13.8948V14.4319C35.5165 14.1708 34.9817 13.9896 34.4287 13.8948L29.0682 13.9129C27.9819 13.9309 26.2008 15.0228 26.0406 16.2222C26.005 15.0228 24.5445 13.9309 23.4403 13.9129L17.5099 13.8948C17.2178 13.9081 16.9317 13.9836 16.6708 14.1163C16.4098 14.249 16.1799 14.4359 15.9963 14.6647L16.0142 11.4963L6.48631 11.3711C4.06414 11.3353 3.60123 13.3758 3.60123 15.309V48.6395H141.978Z" fill="#CA0015" stroke="#CA0015" stroke-width="0.3"/>
<path fill-rule="evenodd" clip-rule="evenodd" d="M5.30958 46.9212V15.3092C5.30809 14.9938 5.3688 14.6812 5.4882 14.3895C5.60759 14.0979 5.78331 13.8329 6.0052 13.6098C6.22708 13.3868 6.49074 13.2102 6.78093 13.0902C7.07112 12.9702 7.3821 12.9092 7.69589 12.9107L14.4633 12.9822V19.5337H12.6648V15.3092H8.60439V45.0417L11.1156 45.0237C12.0238 45.0237 12.7542 43.7711 12.6828 41.4973L12.6117 39.188H14.4995L14.3922 43.2322C14.3566 44.8612 12.7715 46.8482 11.1329 46.8659L5.30928 46.9197L5.30958 46.9212ZM110.634 46.9212C109.529 46.9212 108.265 45.686 108.265 44.5584L108.247 17.851H106.448V15.3458H113.216V17.851H111.542V45.167H114.783V15.3446H119.913V17.8497H118.077L118.113 42.7673C118.113 43.9667 117.365 44.6825 116.172 45.148L119.288 45.1661C119.914 45.1499 120.51 44.8914 120.951 44.4446C121.393 43.9978 121.645 43.397 121.657 42.7676L121.675 15.4335H126.412V17.8501H124.666L124.578 41.6219C124.552 43.0161 123.99 44.3463 123.011 45.334C122.032 46.3217 120.71 46.8904 119.323 46.9212H110.634ZM126.662 46.9212V45.2027H128.265V15.3092H126.448V12.9284H131.809V16.6158L135.567 12.9461L138.79 12.9281L138.665 45.1667L140.446 45.2024V46.9209H135.62V16.6693L135.513 16.6873L131.755 19.5157L131.808 45.0952H133.642V46.9212H126.662ZM17.5803 46.9212C16.4761 46.9212 15.2116 45.6503 15.2116 44.5047V17.8143C15.2116 16.6149 16.5116 15.4515 17.5803 15.4515L22.869 15.4335C24.0088 15.4335 25.2553 16.7044 25.2553 17.8143V44.5037C25.2553 45.6314 23.9909 46.8665 22.869 46.8845L17.5803 46.9203V46.9212ZM18.9159 45.167H21.6228V17.851H18.9159V45.167ZM29.1741 46.9212C28.0343 46.9212 26.7699 45.6503 26.7699 44.5047V17.8143C26.7699 16.6149 28.1055 15.4515 29.1741 15.4515L34.4629 15.4335C35.5671 15.4335 36.8315 16.7044 36.8315 17.8143L36.8136 44.5037C36.8136 45.6314 35.5674 46.8665 34.4629 46.8845L29.1741 46.9203V46.9212ZM30.4921 45.167H33.199V17.851H30.4921V45.167ZM97.9715 46.9212C96.8496 46.9212 95.5849 45.6503 95.5849 44.5047V17.8143C95.5849 16.6149 96.9207 15.4515 97.9715 15.4515L103.279 15.4335C104.383 15.4335 105.647 16.7044 105.647 17.8143L105.63 44.5037C105.63 45.6314 104.384 46.8665 103.279 46.8845L97.9715 46.9203V46.9212ZM99.3071 45.167H102.014V17.851H99.3071V45.167ZM72.041 40.1546H75.2644L75.1398 44.0391L79.0756 44.0571L79.1467 32.9587L75.1574 32.923C73.8753 32.923 72.9848 31.6164 72.9848 30.3455V17.6897C72.9848 16.562 74.2489 15.2909 75.3711 15.2909H81.4978C81.8216 15.2942 82.1417 15.3612 82.44 15.4879V15.2909H94.5326V21.8592L93.3217 21.7697L93.3038 17.7957L90.3475 17.8494L90.3831 45.1117H91.8257L91.8436 46.9197H85.5047V45.1477L86.4844 45.112L86.609 17.796H83.8829V21.77H80.3759L80.5184 17.8678L76.565 17.8501L76.5291 18.0291L76.4401 28.2329L80.3048 28.2509C80.6138 28.2462 80.9206 28.3052 81.2062 28.4241C81.4918 28.543 81.7501 28.7194 81.9653 28.9424C82.1805 29.1654 82.3481 29.4303 82.4576 29.7208C82.5672 30.0114 82.6164 30.3214 82.6023 30.6317V44.5047C82.6023 45.6503 81.3379 46.9212 80.2336 46.9212H73.4656L72.041 40.1549V40.1546ZM73.4656 46.9209L72.041 40.1546L72.0589 36.5029C71.9699 34.892 70.6875 33.5673 68.2477 32.565C69.7614 32.0636 71.7562 31.5983 71.7562 29.0565L71.7383 17.6897C71.7383 16.562 70.4559 15.3446 69.352 15.3446L49.2096 15.2909V16.6155H50.9013L50.9369 45.1129H49.7971L49.8327 46.9209H60.0374L59.984 40.4408H58.1852V44.343H54.3743L54.4098 31.0072H57.3481L57.366 33.2627H58.8621V26.7295L57.384 26.7833L57.4019 29.1641L54.4278 29.0926L54.4098 17.7975H58.1688L58.1867 21.7715H59.9855V17.851H61.4636L61.7842 45.1132L60.68 45.149V46.9209H66.3967L66.3611 45.1129H65.1502L65.0611 33.4775L66.4325 33.4955C67.3763 33.801 67.8751 34.3906 67.9462 35.2855L68.2669 45.1129L67.1626 45.1487V46.9206L73.4656 46.9209ZM66.4313 30.8819L65.1134 31.0252L64.9888 17.7969H68.034L68.2656 29.092C68.2656 29.9511 67.2684 30.7924 66.4313 30.8819ZM37.7583 46.9209V45.149L38.8802 45.1132V17.7972H37.7583V15.5954L46.7698 15.6312C47.8916 15.6312 49.1561 16.8663 49.1561 18.012L49.174 34.0329C49.174 35.1605 47.9096 36.3957 46.7698 36.4314L42.6558 36.5029L42.6202 45.1129H44.0449L44.0984 46.9209H37.7583ZM42.8342 34.4621L45.8795 34.4441L45.8616 17.7966H42.816L42.8342 34.4621Z" fill="#FFB301"/>
<path d="M72.041 40.1546H75.2644L75.1398 44.0391L79.0756 44.0571L79.1467 32.9587L75.1574 32.923C73.8753 32.923 72.9848 31.6164 72.9848 30.3455V17.6897C72.9848 16.562 74.2489 15.2909 75.3711 15.2909H81.4978C81.8216 15.2942 82.1417 15.3612 82.44 15.4879V15.2909H94.5326V21.8592L93.3217 21.7697L93.3038 17.7957L90.3475 17.8494L90.3831 45.1117H91.8257L91.8436 46.9197H85.5047V45.1477L86.4844 45.112L86.609 17.796H83.8829V21.77H80.3759L80.5184 17.8678L76.565 17.8501L76.5291 18.0291L76.4401 28.2329L80.3048 28.2509C80.6138 28.2462 80.9206 28.3052 81.2062 28.4241C81.4918 28.543 81.7501 28.7194 81.9653 28.9424C82.1805 29.1654 82.3481 29.4303 82.4576 29.7208C82.5672 30.0114 82.6164 30.3214 82.6023 30.6317V44.5047C82.6023 45.6503 81.3379 46.9212 80.2336 46.9212H73.4656L72.041 40.1549V40.1546ZM72.041 40.1546L73.4656 46.9209L67.1626 46.9206V45.1487L68.2669 45.1129L67.9462 35.2855C67.8751 34.3906 67.3763 33.801 66.4325 33.4955L65.0611 33.4775L65.1502 45.1129H66.3611L66.3967 46.9209H60.68V45.149L61.7842 45.1132L61.4636 17.851H59.9855V21.7715H58.1867L58.1688 17.7975H54.4098L54.4278 29.0926L57.4019 29.1641L57.384 26.7833L58.8621 26.7295V33.2627H57.366L57.3481 31.0072H54.4098L54.3743 44.343H58.1852V40.4408H59.9839L60.0374 46.9209H49.8327L49.7971 45.1129H50.9369L50.9013 16.6155H49.2096V15.2909L69.352 15.3446C70.4559 15.3446 71.7383 16.562 71.7383 17.6897L71.7562 29.0565C71.7562 31.5983 69.7614 32.0636 68.2477 32.565C70.6875 33.5673 71.9699 34.892 72.0589 36.5029L72.041 40.1546ZM5.30958 46.9212V15.3092C5.30809 14.9938 5.3688 14.6812 5.4882 14.3895C5.60759 14.0979 5.78331 13.8329 6.0052 13.6098C6.22708 13.3868 6.49074 13.2102 6.78093 13.0902C7.07112 12.9702 7.3821 12.9092 7.69589 12.9107L14.4633 12.9822V19.5337H12.6648V15.3092H8.60439V45.0417L11.1156 45.0237C12.0238 45.0237 12.7542 43.7711 12.6828 41.4973L12.6117 39.188H14.4995L14.3922 43.2322C14.3566 44.8612 12.7715 46.8482 11.1329 46.8659L5.30928 46.9197L5.30958 46.9212ZM110.634 46.9212C109.529 46.9212 108.265 45.686 108.265 44.5584L108.247 17.851H106.448V15.3458H113.216V17.851H111.542V45.167H114.783V15.3446H119.913V17.8497H118.077L118.113 42.7673C118.113 43.9667 117.365 44.6825 116.172 45.148L119.288 45.1661C119.914 45.1499 120.51 44.8914 120.951 44.4446C121.393 43.9978 121.645 43.397 121.657 42.7676L121.675 15.4335H126.412V17.8501H124.666L124.578 41.6219C124.552 43.0161 123.99 44.3463 123.011 45.334C122.032 46.3217 120.71 46.8904 119.323 46.9212H110.634ZM126.662 46.9212V45.2027H128.265V15.3092H126.448V12.9284H131.809V16.6158L135.567 12.9461L138.79 12.9281L138.665 45.1667L140.446 45.2024V46.9209H135.62V16.6693L135.513 16.6873L131.755 19.5157L131.808 45.0952H133.642V46.9212H126.662ZM17.5803 46.9212C16.4761 46.9212 15.2116 45.6503 15.2116 44.5047V17.8143C15.2116 16.6149 16.5116 15.4515 17.5803 15.4515L22.869 15.4335C24.0088 15.4335 25.2553 16.7044 25.2553 17.8143V44.5037C25.2553 45.6314 23.9909 46.8665 22.869 46.8845L17.5803 46.9203V46.9212ZM18.9159 45.167H21.6228V17.851H18.9159V45.167ZM29.1741 46.9212C28.0343 46.9212 26.7699 45.6503 26.7699 44.5047V17.8143C26.7699 16.6149 28.1055 15.4515 29.1741 15.4515L34.4629 15.4335C35.5671 15.4335 36.8315 16.7044 36.8315 17.8143L36.8136 44.5037C36.8136 45.6314 35.5674 46.8665 34.4629 46.8845L29.1741 46.9203V46.9212ZM30.4921 45.167H33.199V17.851H30.4921V45.167ZM97.9715 46.9212C96.8496 46.9212 95.5849 45.6503 95.5849 44.5047V17.8143C95.5849 16.6149 96.9207 15.4515 97.9715 15.4515L103.279 15.4335C104.383 15.4335 105.647 16.7044 105.647 17.8143L105.63 44.5037C105.63 45.6314 104.384 46.8665 103.279 46.8845L97.9715 46.9203V46.9212ZM99.3071 45.167H102.014V17.851H99.3071V45.167ZM66.4313 30.8819L65.1134 31.0252L64.9888 17.7969H68.034L68.2656 29.092C68.2656 29.9511 67.2684 30.7924 66.4313 30.8819ZM37.7583 46.9209V45.149L38.8802 45.1132V17.7972H37.7583V15.5954L46.7698 15.6312C47.8916 15.6312 49.1561 16.8663 49.1561 18.012L49.174 34.0329C49.174 35.1605 47.9096 36.3957 46.7698 36.4314L42.6558 36.5029L42.6202 45.1129H44.0449L44.0984 46.9209H37.7583ZM42.8342 34.4621L45.8795 34.4441L45.8616 17.7966H42.816L42.8342 34.4621Z" stroke="#FFB301" stroke-width="0.3"/>
<path fill-rule="evenodd" clip-rule="evenodd" d="M72.0413 101.195C89.1382 101.195 103.119 87.1421 103.119 69.9236C103.119 52.739 89.1369 38.687 72.0413 38.687C54.9089 38.687 40.9285 52.7402 40.9285 69.9236C40.9458 78.212 44.2293 86.1561 50.0603 92.0169C55.8914 97.8777 63.795 101.178 72.0413 101.195Z" fill="white"/>
<path fill-rule="evenodd" clip-rule="evenodd" d="M90.8664 66.1462C90.8068 66.1713 90.7419 66.1814 90.6775 66.1756C90.6131 66.1699 90.551 66.1484 90.4967 66.1132C90.4424 66.0779 90.3974 66.0299 90.3656 65.9733C90.3339 65.9167 90.3163 65.8531 90.3145 65.7882C90.2783 65.6403 90.2919 65.4846 90.3531 65.3454C90.4143 65.2062 90.5197 65.0912 90.6528 65.0186C90.9199 64.9111 91.1695 65.0901 91.2224 65.4124C91.2514 65.557 91.2323 65.7072 91.1679 65.8398C91.1036 65.9725 90.9977 66.0801 90.8664 66.1462Z" fill="#CA0015"/>
<path fill-rule="evenodd" clip-rule="evenodd" d="M90.9731 63.4789C90.7059 63.5504 90.4923 63.3357 90.4743 63.0314C90.4683 62.8808 90.5099 62.7322 90.593 62.6068C90.6762 62.4814 90.7967 62.3857 90.9373 62.3333C91.002 62.3227 91.0684 62.3271 91.1312 62.3461C91.1941 62.3652 91.2518 62.3984 91.2999 62.4433C91.348 62.4882 91.3853 62.5435 91.4089 62.6051C91.4325 62.6667 91.4418 62.7328 91.436 62.7986C91.4517 62.9487 91.4137 63.0996 91.3289 63.2242C91.2441 63.3488 91.118 63.4391 90.9731 63.4789Z" fill="#CA0015"/>
<path fill-rule="evenodd" clip-rule="evenodd" d="M91.5607 57.8585C91.5433 57.7962 91.5407 57.7307 91.5534 57.6673C91.566 57.6038 91.5934 57.5443 91.6334 57.4936C91.6734 57.4429 91.7247 57.4025 91.7833 57.3756C91.8418 57.3488 91.9059 57.3363 91.9702 57.3391C92.1179 57.3321 92.264 57.3738 92.3861 57.4578C92.5082 57.5417 92.5997 57.6634 92.6467 57.8044C92.7361 58.073 92.5401 58.2877 92.2373 58.3057C92.0913 58.3163 91.946 58.2781 91.8237 58.1973C91.7014 58.1165 91.609 57.9974 91.5607 57.8585Z" fill="#CA0015"/>
<path fill-rule="evenodd" clip-rule="evenodd" d="M92.3443 56.2649C92.3259 56.2035 92.3228 56.1385 92.3353 56.0756C92.3478 56.0128 92.3755 55.954 92.416 55.9044C92.4564 55.8549 92.5084 55.8161 92.5673 55.7915C92.6262 55.767 92.6902 55.7574 92.7537 55.7635C92.8991 55.7568 93.0429 55.7964 93.1645 55.8768C93.2861 55.9572 93.3792 56.0742 93.4306 56.2111C93.4479 56.2709 93.4508 56.3341 93.439 56.3952C93.4272 56.4564 93.401 56.5139 93.3628 56.5629C93.3245 56.6119 93.2751 56.651 93.2188 56.677C93.1624 56.703 93.1008 56.7152 93.0388 56.7124C92.8909 56.7207 92.7443 56.6819 92.6196 56.6015C92.4949 56.5212 92.3986 56.4034 92.3443 56.2649Z" fill="#CA0015"/>
<path fill-rule="evenodd" clip-rule="evenodd" d="M92.9674 54.475C92.9318 54.2245 93.1455 54.0632 93.4479 54.0993C93.5871 54.1221 93.7166 54.185 93.821 54.2803C93.9253 54.3756 93.9999 54.4993 94.0358 54.6363C94.0713 54.8869 93.8576 55.0659 93.5725 55.0121C93.4303 54.9924 93.297 54.9309 93.1893 54.8354C93.0816 54.7398 93.0044 54.6145 92.9674 54.475Z" fill="#CA0015"/>
<path fill-rule="evenodd" clip-rule="evenodd" d="M93.7333 52.8996C93.7333 52.7026 93.9825 52.5942 94.2676 52.6858C94.3976 52.7187 94.5154 52.7886 94.6071 52.8869C94.6987 52.9853 94.7602 53.1081 94.7843 53.2406C94.7843 53.4544 94.5527 53.5629 94.2676 53.4544C93.9825 53.3652 93.7333 53.1144 93.7333 52.8996Z" fill="#CA0015"/>
<path fill-rule="evenodd" clip-rule="evenodd" d="M94.4278 51.7539C94.481 51.5749 94.7317 51.5749 94.9798 51.7539C95.0974 51.8086 95.1959 51.8976 95.2626 52.0094C95.3293 52.1211 95.361 52.2504 95.3536 52.3805C95.3001 52.5415 95.0497 52.5415 94.8017 52.3805C94.5524 52.2015 94.3752 51.9152 94.4278 51.7539Z" fill="#CA0015"/>
<path fill-rule="evenodd" clip-rule="evenodd" d="M95.1757 51.1813C95.211 51.0022 95.4429 51.0203 95.6924 51.1993C95.9237 51.396 96.1021 51.6646 96.0663 51.8078C96.0134 51.9869 95.7991 51.9688 95.5496 51.7901C95.3 51.6114 95.1401 51.3245 95.1757 51.1813Z" fill="#CA0015"/>
<path fill-rule="evenodd" clip-rule="evenodd" d="M91.0441 60.3103C91.0179 60.2493 91.0067 60.1828 91.0117 60.1166C91.0167 60.0503 91.0376 59.9863 91.0726 59.9299C91.1077 59.8736 91.1558 59.8266 91.2129 59.7931C91.27 59.7596 91.3343 59.7405 91.4003 59.7375C91.5456 59.7177 91.6934 59.7431 91.8238 59.8103C91.9542 59.8775 92.061 59.9832 92.1298 60.1133C92.1522 60.1733 92.1603 60.2378 92.1534 60.3016C92.1466 60.3653 92.125 60.4266 92.0905 60.4805C92.0559 60.5344 92.0093 60.5794 91.9543 60.612C91.8993 60.6445 91.8376 60.6638 91.7739 60.6681C91.6302 60.6952 91.4816 60.675 91.3501 60.6106C91.2187 60.5461 91.1114 60.4409 91.0441 60.3103Z" fill="#CA0015"/>
<path fill-rule="evenodd" clip-rule="evenodd" d="M83.0298 63.6577C83.2969 63.6757 83.4395 63.944 83.3684 64.2486C83.3435 64.3926 83.2693 64.5234 83.1586 64.6183C83.048 64.7131 82.9077 64.7661 82.7623 64.7679C82.4775 64.7499 82.3352 64.4994 82.4064 64.1771C82.4375 64.0329 82.5158 63.9033 82.6288 63.8092C82.7418 63.715 82.883 63.6617 83.0298 63.6577Z" fill="#CA0015"/>
<path fill-rule="evenodd" clip-rule="evenodd" d="M83.582 59.9165C83.6465 59.9231 83.7087 59.9445 83.7637 59.9789C83.8187 60.0134 83.8652 60.06 83.8996 60.1153C83.934 60.1705 83.9553 60.233 83.962 60.2978C83.9687 60.3626 83.9606 60.4281 83.9382 60.4893C83.9134 60.6381 83.8374 60.7733 83.7234 60.8715C83.6095 60.9696 83.4649 61.0245 83.3148 61.0264C83.2495 61.0176 83.1869 60.9942 83.1317 60.958C83.0765 60.9217 83.0301 60.8734 82.9959 60.8167C82.9617 60.7601 82.9406 60.6964 82.9341 60.6304C82.9276 60.5645 82.9358 60.4979 82.9583 60.4355C82.9896 60.2914 83.068 60.162 83.1811 60.0679C83.2941 59.9738 83.4353 59.9205 83.582 59.9165Z" fill="#CA0015"/>
<path fill-rule="evenodd" clip-rule="evenodd" d="M84.2944 56.4265C84.3518 56.4634 84.4008 56.5124 84.4379 56.5699C84.475 56.6275 84.4994 56.6923 84.5095 56.7602C84.5196 56.828 84.5151 56.8972 84.4964 56.9631C84.4777 57.0291 84.4452 57.0903 84.4011 57.1426C84.314 57.2572 84.19 57.3377 84.0503 57.3704C83.9105 57.4031 83.7639 57.3858 83.6354 57.3216C83.5787 57.2858 83.5305 57.2379 83.4944 57.1812C83.4583 57.1245 83.4352 57.0605 83.4266 56.9937C83.4181 56.927 83.4244 56.8591 83.4451 56.7951C83.4658 56.7311 83.5004 56.6725 83.5464 56.6235C83.628 56.5074 83.7478 56.4239 83.8846 56.3879C84.0215 56.3518 84.1666 56.3655 84.2944 56.4265Z" fill="#CA0015"/>
<path fill-rule="evenodd" clip-rule="evenodd" d="M85.4702 53.8127C85.5038 53.8715 85.524 53.937 85.5293 54.0045C85.5347 54.072 85.5251 54.1398 85.5012 54.2032C85.4774 54.2665 85.4398 54.3238 85.3913 54.3708C85.3428 54.4178 85.2845 54.4534 85.2207 54.4751C85.084 54.5196 84.9364 54.5173 84.8011 54.4688C84.6657 54.4202 84.5502 54.328 84.4724 54.2065C84.4367 54.1497 84.4147 54.0852 84.4083 54.0182C84.4019 53.9513 84.4112 53.8838 84.4355 53.8211C84.4597 53.7584 84.4983 53.7024 84.548 53.6574C84.5978 53.6125 84.6574 53.5798 84.7219 53.5622C84.8557 53.506 85.0052 53.5005 85.1428 53.5465C85.2804 53.5926 85.3967 53.6871 85.4702 53.8127Z" fill="#CA0015"/>
<path fill-rule="evenodd" clip-rule="evenodd" d="M87.0188 65.4676C87.0371 65.1621 87.0012 64.841 87.0188 64.5368C87.0861 64.2183 87.2333 63.9224 87.4465 63.6774C87.5003 63.6236 87.4465 63.9829 87.5003 63.9279C87.4465 64.1607 87.3933 64.1246 87.3398 64.3754C87.2149 64.8038 87.1614 65.0366 87.0188 65.4676Z" fill="#CA0015"/>
<path fill-rule="evenodd" clip-rule="evenodd" d="M87.5004 62.7269C87.5004 62.4046 87.4107 62.1003 87.3934 61.7961C87.4338 61.4694 87.5497 61.1568 87.7317 60.8832C87.7852 60.8294 87.7672 61.2055 87.821 61.116C87.7852 61.3665 87.7317 61.3488 87.6964 61.5813C87.6068 62.0469 87.6068 62.2794 87.5004 62.7269Z" fill="#CA0015"/>
<path fill-rule="evenodd" clip-rule="evenodd" d="M87.9634 59.2903C88.0345 59.0037 88.0524 58.6817 88.1235 58.3774C88.2532 58.0759 88.4625 57.8159 88.7287 57.6256C88.7825 57.5898 88.6576 57.9479 88.7287 57.8941C88.622 58.108 88.5685 58.0731 88.4798 58.2879C88.2661 58.6997 88.1931 58.8965 87.9634 59.2903Z" fill="#CA0015"/>
<path fill-rule="evenodd" clip-rule="evenodd" d="M89.1205 56.301C89.0494 55.9787 88.9078 55.6744 88.8357 55.3344C88.8254 54.974 88.886 54.6151 89.0139 54.2783C89.0491 54.2425 89.1205 54.6183 89.1205 54.5468C89.1385 54.7973 89.1029 54.7973 89.1205 55.0662V56.301Z" fill="#CA0015"/>
<path fill-rule="evenodd" clip-rule="evenodd" d="M90.0999 63.3714C90.3127 63.3357 90.5273 63.4071 90.7233 63.3534C91.0972 63.2101 91.1504 62.5658 90.8659 62.4045C89.9236 61.8497 88.8531 61.9569 87.7492 62.1906C87.0899 62.3339 87.0197 63.9986 87.4106 63.7301C88.2477 63.6042 89.2805 63.5504 90.0999 63.3714Z" fill="#CA0015"/>
<path fill-rule="evenodd" clip-rule="evenodd" d="M86.8761 66.0208C86.0391 65.2332 84.3473 64.4099 83.2251 64.0518C83.137 64.0168 83.0394 64.0147 82.9499 64.046C82.8604 64.0772 82.7851 64.1398 82.7376 64.2222C82.6902 64.3046 82.6738 64.4014 82.6914 64.495C82.709 64.5885 82.7595 64.6726 82.8336 64.7319C83.9558 65.8237 85.2382 66.3608 86.3594 67.0232C86.8406 67.3287 87.3391 66.7904 87.054 66.2533L86.8761 66.0208Z" fill="#CA0015"/>
<path fill-rule="evenodd" clip-rule="evenodd" d="M90.0832 66.4149C90.3504 66.3073 91.8641 65.645 90.8127 65.305C89.655 64.9469 88.462 65.2512 87.2507 65.6988C86.5024 65.9673 86.6985 67.632 87.0726 67.292C88.034 67.0054 89.1738 66.7372 90.0832 66.4149Z" fill="#CA0015"/>
<path fill-rule="evenodd" clip-rule="evenodd" d="M87.9088 58.6636C86.9035 57.7112 85.7159 56.9742 84.4182 56.4976C83.9374 56.3543 83.5456 56.9629 83.8839 57.2308C85.1301 58.2512 87.1787 58.985 87.5009 60.2202C87.6422 60.7936 88.5863 59.3257 87.9088 58.6636Z" fill="#CA0015"/>
<path fill-rule="evenodd" clip-rule="evenodd" d="M87.3395 62.2617C86.2875 61.3583 85.0887 60.6437 83.7954 60.1494C83.709 60.111 83.6117 60.1052 83.5215 60.1332C83.4312 60.1612 83.354 60.221 83.3041 60.3016C83.2543 60.3822 83.2351 60.4782 83.25 60.572C83.265 60.6657 83.3132 60.7509 83.3857 60.8117C84.6501 61.8505 86.6267 62.6735 87.0723 63.8549C87.3039 64.3916 88.0692 62.9417 87.3395 62.2617Z" fill="#CA0015"/>
<path fill-rule="evenodd" clip-rule="evenodd" d="M90.5991 60.7045C90.8119 60.6507 91.0089 60.7583 91.2222 60.6865C91.305 60.643 91.3761 60.5802 91.4296 60.5033C91.4832 60.4264 91.5175 60.3377 91.5297 60.2447C91.5419 60.1517 91.5317 60.0571 91.4999 59.9689C91.468 59.8806 91.4156 59.8014 91.3469 59.7379C90.4046 59.1831 89.3523 59.2903 88.2305 59.5408C87.5894 59.6841 87.5359 61.3488 87.9098 61.0803C88.7648 60.9373 89.7621 60.8835 90.5991 60.7045Z" fill="#CA0015"/>
<path fill-rule="evenodd" clip-rule="evenodd" d="M91.2403 57.9835C91.4006 58.0811 91.5878 58.125 91.7746 58.1087C91.856 58.091 91.9317 58.0532 91.995 57.9988C92.0583 57.9444 92.1072 57.8751 92.1373 57.7971C92.1674 57.7191 92.1778 57.6347 92.1676 57.5517C92.1573 57.4686 92.1267 57.3894 92.0786 57.3211C91.3606 56.6456 90.4251 56.2517 89.4424 56.2112C88.7129 56.1575 88.374 57.8222 88.8372 57.6777C89.6484 57.4781 90.5042 57.587 91.2403 57.9835Z" fill="#CA0015"/>
<path fill-rule="evenodd" clip-rule="evenodd" d="M92.0239 55.7997C92.1488 55.9072 92.398 56.444 92.5938 56.462C92.9676 56.462 93.0746 55.7288 92.861 55.4773C92.202 54.6717 91.4184 53.8841 90.3856 53.7054C89.6373 53.5802 88.7829 54.9406 89.2813 54.8688C90.1895 54.7616 91.4008 55.3521 92.0239 55.7997Z" fill="#CA0015"/>
<path fill-rule="evenodd" clip-rule="evenodd" d="M88.7646 55.4957C87.7707 54.6948 86.6259 54.1042 85.399 53.7595C84.9355 53.652 84.6154 54.2428 84.9534 54.4927C86.1643 55.3341 88.1057 55.8531 88.4975 56.9807C88.6576 57.4827 89.4236 56.0682 88.7646 55.4957Z" fill="#CA0015"/>
<path fill-rule="evenodd" clip-rule="evenodd" d="M86.2179 51.074C86.2522 51.1312 86.2729 51.1956 86.2786 51.2621C86.2842 51.3286 86.2746 51.3956 86.2505 51.4578C86.2264 51.52 86.1885 51.5758 86.1396 51.621C86.0906 51.6662 86.0321 51.6995 85.9684 51.7183C85.8342 51.7703 85.6862 51.7737 85.5498 51.7279C85.4134 51.6822 85.297 51.5903 85.2207 51.4678C85.1855 51.4094 85.1641 51.3438 85.1579 51.2759C85.1518 51.2079 85.161 51.1394 85.1851 51.0756C85.2091 51.0118 85.2473 50.9544 85.2967 50.9076C85.3461 50.8608 85.4054 50.8259 85.4702 50.8055C85.6065 50.7568 85.7554 50.7569 85.8917 50.8058C86.0279 50.8548 86.1432 50.9495 86.2179 51.074Z" fill="#CA0015"/>
<path fill-rule="evenodd" clip-rule="evenodd" d="M87.1794 48.8899C87.21 48.9501 87.2269 49.0165 87.2287 49.084C87.2305 49.1516 87.2172 49.2187 87.1899 49.2805C87.1626 49.3423 87.1218 49.3971 87.0707 49.441C87.0195 49.4849 86.9593 49.5168 86.8943 49.5342C86.7537 49.5777 86.6026 49.571 86.4663 49.5154C86.3301 49.4597 86.2171 49.3584 86.1466 49.2287C86.118 49.1682 86.1027 49.1022 86.1019 49.0353C86.1011 48.9683 86.1146 48.9019 86.1417 48.8407C86.1688 48.7795 86.2087 48.7249 86.2588 48.6807C86.3089 48.6364 86.3678 48.6036 86.4317 48.5844C86.5724 48.545 86.7221 48.5536 86.8574 48.6089C86.9928 48.6642 87.106 48.763 87.1794 48.8899Z" fill="#CA0015"/>
<path fill-rule="evenodd" clip-rule="evenodd" d="M88.2656 47.3862C88.3902 47.5833 88.2656 47.8158 87.9805 47.8695C87.8528 47.9148 87.7138 47.9166 87.585 47.8745C87.4562 47.8324 87.3448 47.7489 87.268 47.6368C87.1255 47.4397 87.268 47.2249 87.5352 47.1534C87.6663 47.1166 87.8052 47.119 87.9349 47.1603C88.0647 47.2017 88.1796 47.2802 88.2656 47.3862Z" fill="#CA0015"/>
<path fill-rule="evenodd" clip-rule="evenodd" d="M89.1206 46.2406C89.2452 46.4196 89.103 46.6164 88.8003 46.6344C88.6632 46.6569 88.5226 46.6441 88.3918 46.5972C88.2609 46.5502 88.1441 46.4706 88.0522 46.3659C87.9276 46.1868 88.0878 46.0078 88.3905 45.954C88.5267 45.9285 88.6673 45.9418 88.7963 45.9925C88.9253 46.0431 89.0377 46.1291 89.1206 46.2406Z" fill="#CA0015"/>
<path fill-rule="evenodd" clip-rule="evenodd" d="M89.8329 45.4174C89.9223 45.5784 89.7442 45.7229 89.4594 45.7037C89.3256 45.7028 89.1938 45.6718 89.0736 45.613C88.9533 45.5541 88.8477 45.4689 88.7646 45.3636C88.6576 45.1846 88.8357 45.0581 89.1205 45.0771C89.257 45.0764 89.392 45.1066 89.5153 45.1655C89.6387 45.2244 89.7472 45.3105 89.8329 45.4174Z" fill="#CA0015"/>
<path fill-rule="evenodd" clip-rule="evenodd" d="M89.7797 44.3076C89.4758 44.3076 89.3165 44.4509 89.4235 44.6131C89.5168 44.714 89.6297 44.7946 89.7551 44.85C89.8805 44.9055 90.0159 44.9345 90.153 44.9354C90.2137 44.943 90.2754 44.9374 90.3338 44.9188C90.3922 44.9002 90.4459 44.8692 90.4913 44.8279L89.7797 44.3076Z" fill="#CA0015"/>
<path fill-rule="evenodd" clip-rule="evenodd" d="M89.352 54.4749C89.3872 54.1349 89.352 53.7946 89.3872 53.4546C89.4825 53.1179 89.6398 52.8022 89.8508 52.5237C89.9037 52.4879 89.8508 52.8995 89.9036 52.8103C89.8309 52.9722 89.7716 53.1399 89.7261 53.3116C89.5657 53.7588 89.5119 54.0097 89.352 54.4749Z" fill="#CA0015"/>
<path fill-rule="evenodd" clip-rule="evenodd" d="M90.2771 52.1309C90.3482 51.8623 90.3838 51.5938 90.4552 51.3253C90.5881 51.0712 90.7697 50.8461 90.9896 50.6629C91.043 50.6272 90.9361 50.9495 90.9716 50.8957C90.9005 51.0925 90.9181 50.9852 90.8114 51.182C90.6166 51.5217 90.4741 51.7902 90.2771 52.1309Z" fill="#CA0015"/>
<path fill-rule="evenodd" clip-rule="evenodd" d="M91.1508 50.6444C91.1866 50.4305 91.1331 50.2148 91.1508 50.0001C91.2344 49.7703 91.3683 49.5623 91.5426 49.3915C91.5608 49.3735 91.5426 49.642 91.5608 49.5882C91.5426 49.7492 91.5249 49.6778 91.4711 49.821C91.3468 50.1253 91.2754 50.3401 91.1508 50.6444Z" fill="#CA0015"/>
<path fill-rule="evenodd" clip-rule="evenodd" d="M91.6501 49.3559C91.7212 49.142 91.7571 48.9263 91.8282 48.7473C91.9578 48.5435 92.1434 48.3818 92.3625 48.2817C92.416 48.2817 92.2914 48.4956 92.3449 48.4608C92.2552 48.604 92.2738 48.5145 92.1665 48.6746C91.9698 48.9083 91.8461 49.0873 91.6501 49.3559Z" fill="#CA0015"/>
<path fill-rule="evenodd" clip-rule="evenodd" d="M92.4155 48.4065C92.4689 48.2455 92.4689 48.101 92.5401 47.9232C92.6533 47.7841 92.7925 47.6686 92.9498 47.5832C93.0033 47.5652 92.8963 47.7622 92.9498 47.7265C92.8787 47.8517 92.8787 47.7803 92.8072 47.8875C92.6647 48.0845 92.558 48.2098 92.4155 48.4065Z" fill="#CA0015"/>
<path fill-rule="evenodd" clip-rule="evenodd" d="M89.2452 52.6673C88.3258 51.9068 87.2489 51.3624 86.0933 51.0741C85.648 50.9668 85.3453 51.5754 85.6659 51.8073C86.8413 52.7024 88.7285 53.2215 89.103 54.3671C89.2632 54.9048 89.9042 53.2581 89.2452 52.6673Z" fill="#CA0015"/>
<path fill-rule="evenodd" clip-rule="evenodd" d="M92.6828 53.9917C92.8074 54.117 93.0035 54.6721 93.1813 54.6898C93.5554 54.7613 93.7156 54.0097 93.5555 53.7589C92.95 52.8818 92.2199 52.0224 91.2403 51.7542C90.4743 51.5214 89.5126 52.8103 90.029 52.7929C90.9375 52.7566 92.0953 53.4727 92.6828 53.9917Z" fill="#CA0015"/>
<path fill-rule="evenodd" clip-rule="evenodd" d="M90.1185 50.7696C89.2502 49.9504 88.2092 49.3386 87.073 48.9797C86.6456 48.8364 86.2894 49.4092 86.6101 49.6778C87.7143 50.6263 89.5842 51.2887 89.8869 52.4523C90.0289 53.0071 90.7416 51.3962 90.1185 50.7696Z" fill="#CA0015"/>
<path fill-rule="evenodd" clip-rule="evenodd" d="M90.8661 49.0693C90.1184 48.4785 89.4236 47.6029 88.3549 47.3509C87.9096 47.2433 87.4643 47.7447 87.785 47.9417C88.9245 48.7113 90.7056 49.6064 91.0263 50.5385C91.1692 50.9488 91.5075 49.5884 90.8661 49.0693Z" fill="#CA0015"/>
<path fill-rule="evenodd" clip-rule="evenodd" d="M93.5016 52.4341C93.6445 52.5774 93.7335 53.0607 93.9292 53.1322C94.2852 53.2398 94.5527 52.6489 94.3922 52.4161C93.9293 51.5748 93.3235 50.7334 92.3618 50.3039C91.6493 50.0176 90.5274 50.9124 91.0259 50.9842C91.9347 51.1275 93.0034 51.9151 93.5016 52.4341Z" fill="#CA0015"/>
<path fill-rule="evenodd" clip-rule="evenodd" d="M94.1429 51.1456C94.2675 51.2532 94.3921 51.9512 94.5881 52.0227C94.962 52.148 94.9979 51.4499 94.873 51.2171C94.4459 50.4653 94.0541 49.7134 93.0745 49.2481C92.3265 48.8901 91.0797 49.4272 91.614 49.5536C92.5781 49.8591 93.4486 50.4071 94.1429 51.1456Z" fill="#CA0015"/>
<path fill-rule="evenodd" clip-rule="evenodd" d="M91.2403 47.7802C90.5108 47.1894 90.243 46.4736 89.1388 46.1693C88.6935 46.026 88.2126 46.4559 88.5154 46.6526C89.6372 47.4225 91.3825 48.3711 91.632 49.2124C91.757 49.6059 91.846 48.2636 91.2403 47.7802Z" fill="#CA0015"/>
<path fill-rule="evenodd" clip-rule="evenodd" d="M91.97 47.0823C91.311 46.4737 90.9904 45.7576 89.9396 45.3281C89.4943 45.1313 88.9779 45.4176 89.2627 45.6336C90.2961 46.4392 92.059 47.5848 92.2013 48.3367C92.273 48.6752 92.522 47.5833 91.97 47.0823Z" fill="#CA0015"/>
<path fill-rule="evenodd" clip-rule="evenodd" d="M95.7099 50.8951C95.7455 50.7698 95.906 50.7876 96.1017 50.9131C96.1786 50.9651 96.2426 51.034 96.2889 51.1147C96.3352 51.1953 96.3626 51.2855 96.3689 51.3784C96.3509 51.5037 96.1561 51.5037 95.9947 51.3604C95.799 51.2174 95.6741 51.0026 95.7099 50.8951Z" fill="#CA0015"/>
<path fill-rule="evenodd" clip-rule="evenodd" d="M92.5936 46.4198C91.9346 45.829 91.5072 45.0774 90.4565 44.6299C90.0288 44.4508 89.4948 44.7194 89.762 44.9354C90.8127 45.741 92.6826 46.9401 92.8252 47.6742C92.8963 48.013 93.1458 46.9392 92.5936 46.4198Z" fill="#CA0015" stroke="#CA0015" stroke-width="0.3"/>
<path fill-rule="evenodd" clip-rule="evenodd" d="M95.443 50.1074C95.5317 50.2684 95.6032 51.0202 95.7989 51.1635C96.1378 51.414 96.2445 50.6442 96.1378 50.3939C95.7989 49.5168 95.4965 48.6755 94.5707 47.9236C93.8758 47.3688 92.595 47.5476 93.1102 47.8341C94.0324 48.426 94.8259 49.1992 95.443 50.1074Z" fill="#CA0015" stroke="#CA0015" stroke-width="0.3"/>
<path fill-rule="evenodd" clip-rule="evenodd" d="M94.8727 50.4654C94.9976 50.5906 95.1578 51.432 95.3539 51.5395C95.7277 51.7534 95.7457 50.8952 95.6214 50.6624C95.1937 49.8211 94.8007 49.0335 93.8047 48.4069C93.0752 47.9236 91.829 48.2459 92.3621 48.4607C93.3338 48.9378 94.1905 49.6219 94.8727 50.4654Z" fill="#CA0015"/>
<path fill-rule="evenodd" clip-rule="evenodd" d="M53.8762 67.7047C54.1254 67.8122 54.375 67.6509 54.4281 67.3289C54.4578 67.1845 54.4368 67.0342 54.3686 66.9037C54.3005 66.7731 54.1894 66.6703 54.0543 66.6128C53.9946 66.5889 53.93 66.5796 53.866 66.5859C53.802 66.5921 53.7404 66.6137 53.6864 66.6487C53.6324 66.6838 53.5875 66.7313 53.5554 66.7873C53.5234 66.8434 53.5052 66.9063 53.5023 66.9709C53.4765 67.1174 53.4991 67.2685 53.5665 67.4009C53.634 67.5334 53.7428 67.6401 53.8762 67.7047Z" fill="#CA0015"/>
<path fill-rule="evenodd" clip-rule="evenodd" d="M53.752 64.3752C53.817 64.3874 53.884 64.3842 53.9476 64.3657C54.0112 64.3472 54.0696 64.314 54.1181 64.2687C54.1666 64.2234 54.2039 64.1674 54.2269 64.105C54.2499 64.0426 54.2581 63.9757 54.2508 63.9096C54.2564 63.7635 54.2142 63.6195 54.1306 63.4999C54.0469 63.3802 53.9265 63.2914 53.7878 63.2472C53.7245 63.236 53.6594 63.2393 53.5974 63.257C53.5355 63.2747 53.4784 63.3063 53.4304 63.3494C53.3824 63.3925 53.3447 63.4459 53.3202 63.5058C53.2957 63.5656 53.2851 63.6302 53.2891 63.6948C53.2796 63.8439 53.3201 63.9918 53.404 64.1151C53.4879 64.2384 53.6104 64.3299 53.752 64.3752Z" fill="#CA0015"/>
<path fill-rule="evenodd" clip-rule="evenodd" d="M53.4132 58.503C53.4279 58.4404 53.4277 58.3752 53.4125 58.3127C53.3974 58.2502 53.3678 58.1921 53.3262 58.1433C53.2846 58.0944 53.232 58.0562 53.1729 58.0316C53.1137 58.007 53.0497 57.9967 52.9858 58.0017C52.8415 57.9999 52.6998 58.0415 52.5792 58.1213C52.4585 58.201 52.3644 58.3153 52.309 58.4493C52.2378 58.7178 52.4336 58.9326 52.7363 58.9503C52.8809 58.9535 53.0231 58.9125 53.144 58.8326C53.2649 58.7527 53.3588 58.6378 53.4132 58.503Z" fill="#CA0015"/>
<path fill-rule="evenodd" clip-rule="evenodd" d="M52.5944 56.1578C52.6147 56.0987 52.6196 56.0355 52.6088 55.974C52.5979 55.9125 52.5717 55.8548 52.5324 55.8064C52.4932 55.758 52.4423 55.7205 52.3845 55.6974C52.3268 55.6743 52.2642 55.6664 52.2026 55.6745C52.0589 55.6642 51.9158 55.7003 51.794 55.7776C51.6722 55.8548 51.5782 55.9692 51.5257 56.104C51.5045 56.1649 51.4986 56.2302 51.5086 56.2939C51.5186 56.3577 51.5441 56.4179 51.5829 56.4694C51.6217 56.5208 51.6726 56.5618 51.7309 56.5886C51.7893 56.6155 51.8534 56.6274 51.9175 56.6234C52.0637 56.6229 52.2065 56.5783 52.3272 56.4952C52.4479 56.4122 52.541 56.2946 52.5944 56.1578Z" fill="#CA0015"/>
<path fill-rule="evenodd" clip-rule="evenodd" d="M51.5256 53.9026C51.5435 53.6521 51.3128 53.4908 51.0268 53.5445C50.888 53.5611 50.7575 53.6196 50.6525 53.7123C50.5475 53.8051 50.4731 53.9277 50.4389 54.0639C50.4034 54.3144 50.635 54.4757 50.9198 54.4396C51.0622 54.4201 51.1956 54.3586 51.3034 54.2631C51.4112 54.1675 51.4884 54.0421 51.5256 53.9026Z" fill="#CA0015"/>
<path fill-rule="evenodd" clip-rule="evenodd" d="M50.724 52.3807C50.724 52.1479 50.4924 52.0584 50.2073 52.1479C50.076 52.1782 49.9567 52.2472 49.8647 52.346C49.7726 52.4448 49.712 52.569 49.6906 52.7027C49.6906 52.8998 49.9222 53.0082 50.2073 52.9166C50.4927 52.8102 50.724 52.5778 50.724 52.3807Z" fill="#CA0015"/>
<path fill-rule="evenodd" clip-rule="evenodd" d="M50.0294 51.2346C49.9759 51.0736 49.7254 51.0556 49.4774 51.2166C49.1926 51.3956 49.05 51.6642 49.1035 51.8252C49.157 52.0042 49.4075 52.0222 49.6555 51.8432C49.9227 51.6828 50.0828 51.4143 50.0294 51.2346Z" fill="#CA0015"/>
<path fill-rule="evenodd" clip-rule="evenodd" d="M49.2638 50.6626C49.2282 50.5193 48.9966 50.5373 48.765 50.6983C48.5334 50.8953 48.3553 51.1636 48.3911 51.3069C48.4446 51.4679 48.6583 51.4501 48.8899 51.2711C49.0002 51.212 49.0929 51.1245 49.1586 51.0176C49.2243 50.9107 49.2606 50.7882 49.2638 50.6626Z" fill="#CA0015"/>
<path fill-rule="evenodd" clip-rule="evenodd" d="M54.0005 61.1166C54.0184 61.0562 54.0225 60.9925 54.0124 60.9303C54.0024 60.8681 53.9785 60.8089 53.9426 60.7573C53.9066 60.7057 53.8596 60.6629 53.8049 60.6321C53.7501 60.6013 53.6892 60.5833 53.6267 60.5795C53.4829 60.5525 53.3344 60.5728 53.203 60.6373C53.0716 60.7018 52.9644 60.807 52.8972 60.9375C52.876 60.999 52.8694 61.0646 52.8779 61.129C52.8864 61.1935 52.9097 61.2551 52.946 61.309C52.9823 61.3628 53.0305 61.4074 53.087 61.4393C53.1434 61.4711 53.2064 61.4893 53.271 61.4923C53.4158 61.5081 53.5621 61.481 53.6917 61.4142C53.8214 61.3474 53.9287 61.2439 54.0005 61.1166Z" fill="#CA0015"/>
<path fill-rule="evenodd" clip-rule="evenodd" d="M61.7658 65.1978C61.4986 65.1978 61.3384 65.4663 61.4096 65.7706C61.4407 65.9148 61.519 66.0443 61.632 66.1385C61.745 66.2326 61.8862 66.286 62.033 66.2899C62.0983 66.2851 62.1615 66.2649 62.2176 66.2309C62.2736 66.1969 62.3209 66.1502 62.3556 66.0944C62.3903 66.0385 62.4115 65.9753 62.4173 65.9098C62.4231 65.8442 62.4135 65.7782 62.3892 65.7171C62.3581 65.5729 62.2798 65.4434 62.1667 65.3492C62.0537 65.2551 61.9125 65.2017 61.7658 65.1978Z" fill="#CA0015"/>
<path fill-rule="evenodd" clip-rule="evenodd" d="M61.3742 61.6523C61.107 61.6704 60.9645 61.9209 61.018 62.2252C61.0542 62.3683 61.1335 62.4968 61.2451 62.5929C61.3567 62.6891 61.4951 62.7482 61.6414 62.7622C61.7076 62.7552 61.7712 62.7328 61.8274 62.697C61.8835 62.6611 61.9307 62.6127 61.9652 62.5555C61.9996 62.4983 62.0205 62.4339 62.0261 62.3673C62.0318 62.3007 62.022 62.2336 61.9976 62.1714C61.9665 62.0273 61.8881 61.8978 61.7751 61.8037C61.6621 61.7096 61.5209 61.6563 61.3742 61.6523Z" fill="#CA0015"/>
<path fill-rule="evenodd" clip-rule="evenodd" d="M60.9465 58.467C60.8903 58.501 60.8424 58.5473 60.8064 58.6024C60.7704 58.6576 60.7473 58.7202 60.7387 58.7856C60.7302 58.851 60.7364 58.9175 60.757 58.9801C60.7775 59.0427 60.8119 59.0999 60.8575 59.1474C60.9429 59.2639 61.0658 59.3471 61.2054 59.383C61.3449 59.4189 61.4925 59.4051 61.6231 59.3441C61.6791 59.3077 61.7264 59.2594 61.7619 59.2027C61.7974 59.1461 61.8202 59.0823 61.8287 59.0158C61.8372 58.9494 61.8311 58.8819 61.811 58.818C61.7909 58.7541 61.7572 58.6954 61.7122 58.646C61.6245 58.5322 61.5005 58.4522 61.361 58.4196C61.2216 58.387 61.0752 58.4037 60.9465 58.467Z" fill="#CA0015"/>
<path fill-rule="evenodd" clip-rule="evenodd" d="M59.8955 55.7462C59.8629 55.8024 59.8434 55.8653 59.8386 55.9302C59.8338 55.9951 59.8438 56.0602 59.8679 56.1207C59.8919 56.1811 59.9293 56.2352 59.9773 56.2789C60.0253 56.3226 60.0826 56.3547 60.1448 56.3728C60.279 56.4247 60.427 56.4281 60.5635 56.3824C60.7 56.3367 60.8164 56.2447 60.8928 56.1222C60.925 56.0646 60.9441 56.0005 60.9487 55.9346C60.9533 55.8687 60.9434 55.8025 60.9195 55.7409C60.8957 55.6793 60.8586 55.6238 60.8109 55.5783C60.7632 55.5329 60.706 55.4986 60.6436 55.4779C60.5072 55.4292 60.3583 55.4292 60.222 55.4781C60.0857 55.527 59.9704 55.6217 59.8955 55.7462Z" fill="#CA0015"/>
<path fill-rule="evenodd" clip-rule="evenodd" d="M57.6876 64.5353C57.6697 64.2298 57.7232 63.9267 57.6876 63.6225C57.6198 63.3044 57.4728 63.0088 57.2603 62.7634C57.2068 62.7454 57.2603 63.0857 57.2068 63.0319C57.2603 63.2647 57.3314 63.229 57.367 63.4615C57.5107 63.891 57.563 64.1058 57.6876 64.5353Z" fill="#CA0015"/>
<path fill-rule="evenodd" clip-rule="evenodd" d="M57.064 61.9755C57.064 61.67 57.153 61.367 57.1709 61.0627C57.1176 60.739 56.9894 60.4324 56.7968 60.1676C56.7612 60.1318 56.7789 60.4899 56.7433 60.4003C56.7705 60.5632 56.8062 60.7246 56.8503 60.8837C56.957 61.3132 56.9749 61.546 57.064 61.9755Z" fill="#CA0015"/>
<path fill-rule="evenodd" clip-rule="evenodd" d="M55.6224 56.3729C55.6224 56.0329 55.7294 55.6926 55.7471 55.3342C55.6862 54.9541 55.5401 54.593 55.3197 54.2781C55.2662 54.2423 55.2842 54.6539 55.2307 54.5646C55.2662 54.8512 55.3376 54.8332 55.3732 55.1194C55.479 55.6211 55.5149 55.8716 55.6224 56.3729Z" fill="#CA0015"/>
<path fill-rule="evenodd" clip-rule="evenodd" d="M56.5654 58.61C56.4764 58.3234 56.4764 58.0191 56.4053 57.7149C56.2642 57.4256 56.0567 57.1742 55.7998 56.9816C55.7463 56.9636 55.8533 57.304 55.7998 57.2502C55.8888 57.464 55.9423 57.4292 56.049 57.644C56.2627 58.0194 56.3518 58.2342 56.5654 58.61Z" fill="#CA0015"/>
<path fill-rule="evenodd" clip-rule="evenodd" d="M54.6423 63.7837C54.4295 63.8374 54.2684 63.9975 54.0544 64.0165C53.9638 64.0148 53.8751 63.9891 53.7976 63.9419C53.72 63.8947 53.6563 63.8276 53.6128 63.7476C53.5694 63.6676 53.5479 63.5774 53.5504 63.4863C53.5529 63.3952 53.5793 63.3064 53.6271 63.2289C54.3395 62.3518 55.39 62.0117 56.4942 61.779C57.1711 61.618 57.7587 63.0856 57.3149 63.0141C56.4587 63.2457 55.4793 63.6046 54.6423 63.7837Z" fill="#CA0015"/>
<path fill-rule="evenodd" clip-rule="evenodd" d="M57.7942 64.1597C58.6848 64.0522 60.3778 64.5355 61.4629 65.0188C61.9082 65.2158 62.0863 65.8959 61.7477 65.9496C60.5723 66.1635 59.2724 65.6991 58.1681 65.5021C57.6693 65.4306 57.242 64.5355 57.5982 64.2495L57.7942 64.1597Z" fill="#CA0015"/>
<path fill-rule="evenodd" clip-rule="evenodd" d="M54.8557 67.0059C54.643 67.0774 54.4284 67.3114 54.2147 67.3459C53.805 67.4534 53.7518 66.8088 54.0545 66.4688C55.0342 65.3412 56.156 64.8041 57.2958 64.3746C57.9727 64.1241 58.0618 65.8068 57.67 65.7707C56.7615 66.1288 55.7107 66.7016 54.8557 67.0059Z" fill="#CA0015"/>
<path fill-rule="evenodd" clip-rule="evenodd" d="M56.9927 58.5927C58.2541 58.2326 59.5764 58.1412 60.875 58.3241C61.3558 58.4317 61.4449 59.1117 61.0352 59.1835C59.5391 59.5058 57.4732 59.2016 56.7075 60.0964C56.3337 60.5259 56.1379 58.8432 56.9927 58.5927Z" fill="#CA0015"/>
<path fill-rule="evenodd" clip-rule="evenodd" d="M57.3669 61.0984C58.3107 60.9374 59.9313 61.206 61 61.5817C61.4453 61.7608 61.552 62.4588 61.1958 62.4769C59.8243 62.5664 57.9189 61.9575 57.2244 62.7631C56.904 63.1212 56.601 61.2402 57.3669 61.0984Z" fill="#CA0015"/>
<path fill-rule="evenodd" clip-rule="evenodd" d="M54.2325 60.83C54.0198 60.9015 53.8587 61.0985 53.6626 61.1523C53.5745 61.1684 53.4837 61.159 53.4007 61.1253C53.3177 61.0916 53.2459 61.0349 53.1937 60.9618C53.1415 60.8887 53.1109 60.8022 53.1057 60.7123C53.1004 60.6225 53.1206 60.533 53.1639 60.4542C53.8228 59.4519 54.8556 58.9328 55.9602 58.503C56.6371 58.2525 57.3137 59.6129 56.8508 59.5948C56.0134 59.9706 55.0517 60.5077 54.2325 60.83Z" fill="#CA0015"/>
<path fill-rule="evenodd" clip-rule="evenodd" d="M53.5557 58.2703C53.4393 58.4159 53.2858 58.5271 53.1116 58.592C52.7909 58.6992 52.4347 58.252 52.5417 57.9834C52.978 57.0941 53.7088 56.3853 54.6086 55.9787C55.2496 55.6732 56.1587 57.0348 55.6772 57.0886C54.8546 57.2217 54.1041 57.6397 53.5557 58.2703Z" fill="#CA0015"/>
<path fill-rule="evenodd" clip-rule="evenodd" d="M52.7903 55.4061C52.6301 55.5136 52.4164 56.0504 52.2204 56.0504C51.8462 56.0684 51.7216 55.3346 51.9164 55.1018C52.5754 54.2962 53.3589 53.5266 54.3741 53.3476C55.1401 53.2224 56.0127 54.5647 55.5139 54.4933C54.6067 54.3857 53.3957 54.9585 52.7903 55.4061Z" fill="#CA0015"/>
<path fill-rule="evenodd" clip-rule="evenodd" d="M56.1915 55.7461C57.3832 55.3461 58.6459 55.2057 59.8958 55.3343C60.3766 55.4058 60.4657 56.0675 60.0739 56.1399C58.6848 56.5157 56.69 56.3189 55.9779 57.2141C55.6575 57.6079 55.373 56.0327 56.1915 55.7461Z" fill="#CA0015"/>
<path fill-rule="evenodd" clip-rule="evenodd" d="M59.13 52.9554C59.0957 53.0125 59.0749 53.0769 59.0693 53.1434C59.0636 53.2099 59.0732 53.2768 59.0972 53.339C59.1213 53.4012 59.1592 53.4571 59.2081 53.5023C59.257 53.5474 59.3155 53.5808 59.3792 53.5997C59.5122 53.6541 59.6607 53.6568 59.7956 53.6071C59.9304 53.5575 60.0421 53.4591 60.1087 53.3311C60.1428 53.2753 60.1635 53.2122 60.1691 53.1468C60.1747 53.0815 60.165 53.0158 60.1408 52.9549C60.1165 52.894 60.0785 52.8396 60.0296 52.7962C59.9808 52.7527 59.9225 52.7213 59.8594 52.7045C59.7277 52.6556 59.5832 52.6538 59.4503 52.6995C59.3174 52.7452 59.2043 52.8356 59.13 52.9554Z" fill="#CA0015"/>
<path fill-rule="evenodd" clip-rule="evenodd" d="M58.1506 50.4836C58.1189 50.5423 58.1012 50.6076 58.099 50.6744C58.0967 50.7412 58.1099 50.8076 58.1376 50.8684C58.1652 50.9291 58.2065 50.9826 58.2583 51.0246C58.31 51.0665 58.3708 51.0958 58.4357 51.1101C58.5738 51.1493 58.7209 51.1405 58.8534 51.085C58.9858 51.0296 59.0957 50.9308 59.1652 50.8046C59.1932 50.7441 59.2074 50.678 59.2067 50.6112C59.2061 50.5445 59.1907 50.4787 59.1616 50.4186C59.1324 50.3586 59.0904 50.3059 59.0384 50.2643C58.9865 50.2226 58.9259 50.1932 58.8612 50.1781C58.726 50.1356 58.5801 50.1431 58.4499 50.1991C58.3196 50.2551 58.2135 50.3559 58.1506 50.4836Z" fill="#CA0015"/>
<path fill-rule="evenodd" clip-rule="evenodd" d="M56.9749 48.3894C56.8503 48.5861 56.9928 48.8012 57.26 48.8727C57.391 48.9094 57.5297 48.9069 57.6593 48.8655C57.7888 48.8242 57.9036 48.7458 57.9895 48.6399C58.1141 48.4431 57.9716 48.2281 57.7044 48.1566C57.5733 48.1242 57.4358 48.1288 57.3071 48.1698C57.1784 48.2109 57.0634 48.2869 56.9749 48.3894Z" fill="#CA0015"/>
<path fill-rule="evenodd" clip-rule="evenodd" d="M55.711 46.8499C55.5864 47.0289 55.7466 47.2257 56.0493 47.2437C56.1837 47.2696 56.3225 47.2582 56.451 47.2109C56.5795 47.1636 56.6928 47.0821 56.7788 46.9751C56.9034 46.7961 56.7432 46.6351 56.4581 46.5813C56.3211 46.5573 56.1802 46.5695 56.0493 46.6165C55.9183 46.6636 55.8018 46.744 55.711 46.8499Z" fill="#CA0015"/>
<path fill-rule="evenodd" clip-rule="evenodd" d="M55.1409 45.6502C55.0518 45.8112 55.2299 45.9368 55.5327 45.9368C55.6635 45.9339 55.7921 45.902 55.9091 45.8432C56.0261 45.7844 56.1288 45.7002 56.2096 45.5968C56.3166 45.4178 56.1561 45.2913 55.8357 45.3105C55.7017 45.3096 55.5693 45.3398 55.4488 45.3987C55.3283 45.4576 55.2229 45.5437 55.1409 45.6502Z" fill="#CA0015"/>
<path fill-rule="evenodd" clip-rule="evenodd" d="M54.9449 44.3259C55.2297 44.3079 55.4078 44.4335 55.3187 44.6122C55.2368 44.7187 55.1315 44.8049 55.011 44.8638C54.8905 44.9228 54.7582 44.953 54.6242 44.9522C54.5606 44.9611 54.4959 44.9561 54.4344 44.9375C54.3729 44.9189 54.3162 44.8873 54.268 44.8447L54.9449 44.3259Z" fill="#CA0015"/>
<path fill-rule="evenodd" clip-rule="evenodd" d="M55.1231 53.9027C55.0875 53.5804 55.1231 53.2404 55.0875 52.9181C54.9961 52.5819 54.8319 52.2702 54.6067 52.0052C54.5532 51.9695 54.6246 52.3633 54.5711 52.2738C54.6422 52.5243 54.6781 52.4876 54.7492 52.7394C54.9094 53.2046 54.9629 53.4374 55.1231 53.9027Z" fill="#CA0015"/>
<path fill-rule="evenodd" clip-rule="evenodd" d="M54.1791 51.6111C54.09 51.3606 54.0545 51.074 53.983 50.8235C53.8507 50.569 53.6619 50.3485 53.4311 50.1792C53.3955 50.1435 53.5022 50.4477 53.449 50.393C53.5557 50.5901 53.5381 50.4826 53.6271 50.6796C53.8229 51.0193 53.9833 51.2711 54.1791 51.6111Z" fill="#CA0015"/>
<path fill-rule="evenodd" clip-rule="evenodd" d="M53.2883 50.1613C53.2704 49.9475 53.3062 49.7318 53.2704 49.5347C53.1939 49.3065 53.0588 49.1026 52.8786 48.9439C52.843 48.9258 52.8965 49.1577 52.843 49.1049C52.8965 49.2839 52.9141 49.1944 52.95 49.3554C53.0923 49.66 53.1457 49.8747 53.2883 50.1613Z" fill="#CA0015"/>
<path fill-rule="evenodd" clip-rule="evenodd" d="M52.7901 48.8726C52.701 48.6936 52.6654 48.4611 52.5773 48.2821C52.4525 48.0894 52.2723 47.9396 52.0606 47.8525C52.0071 47.8525 52.1317 48.0664 52.0785 48.0316C52.1676 48.1568 52.1496 48.0853 52.2387 48.2106C52.4518 48.4608 52.5764 48.6398 52.7901 48.8726Z" fill="#CA0015"/>
<path fill-rule="evenodd" clip-rule="evenodd" d="M52.0059 47.9598C51.9478 47.8142 51.9002 47.6646 51.8634 47.5122C51.7604 47.3633 51.6186 47.2456 51.4537 47.1722C51.4181 47.1542 51.5072 47.3332 51.4537 47.2974C51.5427 47.405 51.5248 47.3512 51.5962 47.4584C51.7388 47.6375 51.8634 47.7807 52.0059 47.9598Z" fill="#CA0015"/>
<path fill-rule="evenodd" clip-rule="evenodd" d="M55.8707 52.9361C56.9839 52.5432 58.1712 52.4086 59.3436 52.5423C59.7889 52.5961 59.8956 53.2584 59.5038 53.3672C58.1503 53.779 56.1907 53.6357 55.4968 54.5486C55.1762 54.9946 55.0871 53.2584 55.8707 52.9361Z" fill="#CA0015"/>
<path fill-rule="evenodd" clip-rule="evenodd" d="M51.8102 53.419C51.65 53.5623 51.4895 54.0994 51.2935 54.1171C50.9196 54.1709 50.7415 53.4547 50.9373 53.2042C51.5072 52.3452 52.2196 51.5038 53.2169 51.2185C53.9649 51.0217 54.9445 52.2926 54.4457 52.2572C53.5199 52.2376 52.3801 52.918 51.8102 53.419Z" fill="#CA0015"/>
<path fill-rule="evenodd" clip-rule="evenodd" d="M54.927 50.7704C55.9701 50.2346 57.1217 49.9467 58.293 49.9291C58.7559 49.911 58.934 50.5737 58.5781 50.7167C57.2781 51.3075 55.3188 51.4147 54.7313 52.4351C54.4638 52.9178 54.1617 51.1981 54.927 50.7704Z" fill="#CA0015"/>
<path fill-rule="evenodd" clip-rule="evenodd" d="M54.0898 49.0693C54.9624 48.6935 55.8351 48.0306 56.9393 48.0847C57.3846 48.1027 57.6873 48.6932 57.349 48.7827C56.0667 49.1946 54.1256 49.6076 53.6105 50.3759C53.3776 50.752 53.3776 49.3736 54.0898 49.0693Z" fill="#CA0015"/>
<path fill-rule="evenodd" clip-rule="evenodd" d="M50.9555 51.9157C50.8309 52.059 50.7239 52.5243 50.5282 52.5961C50.1719 52.7036 49.9227 52.1128 50.0653 51.88C50.5282 51.0744 51.116 50.251 52.0777 49.8392C52.7902 49.5337 53.912 50.43 53.4136 50.4835C52.5051 50.6088 51.4543 51.3964 50.9555 51.9157Z" fill="#CA0015"/>
<path fill-rule="evenodd" clip-rule="evenodd" d="M50.2965 50.6269C50.1719 50.7522 50.0649 51.4325 49.8692 51.504C49.4774 51.6293 49.4418 50.9312 49.5652 50.7164C49.9926 49.9832 50.3668 49.2665 51.3461 48.7832C52.0941 48.4432 53.3585 48.9803 52.805 49.0887C51.8596 49.3949 50.9999 49.9221 50.2965 50.6269Z" fill="#CA0015"/>
<path fill-rule="evenodd" clip-rule="evenodd" d="M53.4311 47.5125C54.2517 47.1007 54.642 46.4738 55.7642 46.4026C56.2271 46.3669 56.6368 46.8859 56.2985 47.0112C55.0341 47.5125 53.1463 48.0316 52.7545 48.7831C52.5593 49.1412 52.7189 47.851 53.4311 47.5125Z" fill="#CA0015"/>
<path fill-rule="evenodd" clip-rule="evenodd" d="M49.5487 49.9825C49.4417 50.1078 49.2995 50.9134 49.1034 51.0212C48.7116 51.2183 48.6937 50.4127 48.8186 50.1799C49.2284 49.355 49.6201 48.5689 50.6174 47.9423C51.3299 47.4948 52.5931 47.8171 52.0599 48.0319C51.0909 48.4894 50.2336 49.1553 49.5487 49.9825Z" fill="#CA0015"/>
<path fill-rule="evenodd" clip-rule="evenodd" d="M48.9965 49.6243C48.8895 49.7676 48.8539 50.5371 48.6582 50.6447C48.3019 50.8952 48.1953 50.1614 48.284 49.9115C48.6223 49.0524 48.925 48.2287 49.8512 47.4949C50.5281 46.9401 51.8101 47.1369 51.2937 47.4054C50.3807 47.9738 49.5978 48.73 48.9965 49.6243Z" fill="#CA0015" stroke="#CA0015" stroke-width="0.3"/>
<path fill-rule="evenodd" clip-rule="evenodd" d="M52.5581 46.7246C53.3061 46.2413 53.7159 45.597 54.7842 45.3284C55.2295 45.2032 55.7459 45.5252 55.4432 45.7222C54.3213 46.3488 52.4341 47.2259 52.2019 47.906C52.0773 48.2283 51.9526 47.1557 52.5581 46.7246Z" fill="#CA0015"/>
<path fill-rule="evenodd" clip-rule="evenodd" d="M48.7294 50.394C48.6938 50.2865 48.5333 50.2865 48.3376 50.4298C48.1774 50.5731 48.0336 50.7698 48.0704 50.8951C48.106 50.9846 48.2665 50.9846 48.4622 50.8593C48.6403 50.7161 48.7649 50.5193 48.7294 50.394Z" fill="#CA0015"/>
<path fill-rule="evenodd" clip-rule="evenodd" d="M58.2215 67.2205C58.2395 66.915 58.2927 66.6119 58.3106 66.3076C58.2624 65.9885 58.1471 65.6833 57.9723 65.4125C57.9188 65.3587 57.9367 65.7348 57.8832 65.6453C57.9188 65.8958 57.9723 65.8592 57.9902 66.1106C58.0969 66.5401 58.1155 66.7729 58.2215 67.2205Z" fill="#CA0015"/>
<path fill-rule="evenodd" clip-rule="evenodd" d="M51.8637 46.0266C52.5406 45.4895 53.0215 44.7914 54.0899 44.4514C54.5351 44.2904 55.0515 44.5767 54.7488 44.7914C53.6801 45.4895 51.7397 46.5456 51.561 47.2437C51.4704 47.566 51.2759 46.4919 51.8637 46.0266Z" fill="#CA0015" stroke="#CA0015" stroke-width="0.3"/>
<path fill-rule="evenodd" clip-rule="evenodd" d="M72.0408 121.673L63.7238 113.313L72.0408 104.99L80.3037 113.314L72.0408 121.673Z" fill="white"/>
<path fill-rule="evenodd" clip-rule="evenodd" d="M35.2821 121.047C40.0906 105.24 54.7652 93.6948 72.0226 93.6948C89.2975 93.6948 103.99 105.294 108.781 121.136L110.045 118.308C104.346 102.753 89.4221 91.6006 72.0213 91.6006C54.6206 91.6006 39.7152 102.735 33.9973 118.29L35.2821 121.047Z" fill="#FFB301" stroke="#FFB301" stroke-width="0.3"/>
<path fill-rule="evenodd" clip-rule="evenodd" d="M132.361 112.168C123.938 86.7855 100.038 68.4018 72.0233 68.4018C43.9913 68.4018 20.0915 86.8036 11.6675 112.204L9.22772 112.956C17.4912 85.9979 42.549 66.3076 72.0236 66.3076C101.462 66.3076 126.485 85.9445 134.784 112.849L132.361 112.168Z" fill="#FFB301" stroke="#FFB301" stroke-width="0.3"/>
<path fill-rule="evenodd" clip-rule="evenodd" d="M34.0003 118.272L28.8536 106.977L11.6686 112.204C20.091 86.8031 43.9911 68.4014 72.0232 68.4014C100.037 68.4014 123.938 86.7851 132.361 112.168L115.033 107.28L110.046 118.306C104.329 102.733 89.4227 91.5989 72.0219 91.5989C54.6212 91.5989 39.717 102.734 34.0003 118.272Z" fill="#0A1F62"/>
<path fill-rule="evenodd" clip-rule="evenodd" d="M30.2068 91.3862L38.7557 99.6739L38.9159 99.4949C39.0513 99.3819 39.1401 99.2224 39.1651 99.0473C39.0765 98.8162 38.9292 98.6125 38.7378 98.4565L38.6667 98.385L31.4178 91.3679C31.133 91.0816 30.919 90.9387 30.8123 90.9387C30.7202 90.9534 30.6319 90.9863 30.5524 91.0354C30.473 91.0845 30.404 91.1489 30.3494 91.2249L30.2068 91.3862ZM26.7874 91.887L29.1205 89.4707C30.0111 88.5579 30.7056 88.0923 31.222 88.0923C31.7384 88.0923 32.522 88.5936 33.5551 89.5963L40.394 96.2367C41.4447 97.2394 41.9791 98.0086 41.9791 98.528C41.997 99.0473 41.5694 99.7631 40.6967 100.658L38.3636 103.111L26.7874 91.887Z" fill="white"/>
<path fill-rule="evenodd" clip-rule="evenodd" d="M37.9536 84.5656L40.7852 88.6111C40.7973 88.5926 40.8131 88.5767 40.8315 88.5644C40.8498 88.5521 40.8705 88.5437 40.8922 88.5396C40.9457 88.5039 40.9633 88.4858 40.9813 88.4858C41.0631 88.4427 41.1344 88.3818 41.1898 88.3075C41.2453 88.2332 41.2836 88.1474 41.3019 88.0563C41.2691 87.8243 41.1702 87.6068 41.0171 87.43L39.2542 84.906C38.987 84.4941 38.7734 84.2974 38.6487 84.2616C38.5241 84.2259 38.3448 84.2974 38.1144 84.4584L37.9542 84.5659L37.9536 84.5656ZM34.5166 84.4223L37.2591 82.4711C38.2387 81.791 39.022 81.5048 39.5743 81.594C40.1262 81.7015 40.8031 82.3272 41.5867 83.4557L42.78 85.1739C43.3144 85.926 43.6007 86.4988 43.6527 86.8923C43.7101 87.3422 43.6094 87.7981 43.3679 88.1813C43.7813 88.0519 44.2286 88.0905 44.614 88.2888C45.094 88.5965 45.5012 89.0058 45.8074 89.4882L48.9417 93.9813L46.6982 95.5558L43.2788 90.6519C43.1757 90.4806 43.0192 90.3483 42.8335 90.2758C42.7409 90.2638 42.6468 90.2719 42.5576 90.2998C42.4685 90.3276 42.3863 90.3744 42.3168 90.4371C42.2989 90.4371 42.2812 90.4728 42.2457 90.5086C42.2095 90.5229 42.1785 90.5478 42.1566 90.5801L45.9864 96.0578L43.7247 97.6507L34.5166 84.4223Z" fill="white"/>
<path fill-rule="evenodd" clip-rule="evenodd" d="M42.7981 78.9627L46.7161 76.958L47.6601 78.8375L46.2012 79.589L48.0711 83.2587L49.53 82.5069L50.4917 84.4044L49.0328 85.1562L51.5972 90.204L53.0561 89.4522L54.0178 91.35L50.0999 93.3547L42.7981 78.9627Z" fill="white"/>
<path fill-rule="evenodd" clip-rule="evenodd" d="M54.1425 77.4234L55.9947 84.5658L56.8674 84.2796L54.2139 77.4057L54.1425 77.4234ZM51.4355 74.9354L54.9261 73.8081L61.4263 88.6473L58.8975 89.4887L57.633 86.2846L56.5467 86.6426L57.4193 89.9726L54.9081 90.7975L51.4355 74.9354Z" fill="white"/>
<path fill-rule="evenodd" clip-rule="evenodd" d="M60.5182 72.3935L63.6884 71.9997L65.6473 79.5536L65.7719 79.5356L65.8431 71.7312L69.0133 71.3374L70.9722 87.3583L68.55 87.6638L67.4811 78.1755L67.3209 78.1935L67.4455 87.8059L66.003 87.9849L63.8124 78.6411L63.6522 78.6591L64.9166 88.1105L62.4768 88.416L60.5182 72.3935Z" fill="white"/>
<path fill-rule="evenodd" clip-rule="evenodd" d="M79.5388 75.0069L79.3787 77.4415L76.6538 77.2444L76.8495 74.4161C76.8721 74.234 76.8476 74.0491 76.7784 73.8793C76.7398 73.8249 76.6892 73.7804 76.6304 73.7493C76.5717 73.7181 76.5065 73.7012 76.4401 73.7C76.3788 73.6931 76.3168 73.7027 76.2604 73.7279C76.204 73.753 76.1554 73.7929 76.1194 73.8432C76.0417 74.0055 75.9992 74.1825 75.9948 74.3626L75.8167 76.8506C75.7897 77.0696 75.8204 77.2919 75.9057 77.4952C76.0298 77.6683 76.1874 77.8144 76.369 77.9248L77.9717 79.0166C78.3685 79.2559 78.6896 79.6035 78.8975 80.019C79.0871 80.502 79.1545 81.0248 79.0936 81.5404L78.862 84.9055C78.7552 86.3375 78.5057 87.2146 78.1136 87.5368C77.7218 87.8591 76.8316 87.9844 75.4602 87.8769C74.1067 87.7873 73.2517 87.5368 72.8957 87.1436C72.5573 86.75 72.4327 85.8548 72.5219 84.4583L72.7711 80.8964L75.5316 81.0931L75.2462 85.0137C75.2188 85.1977 75.25 85.3857 75.3355 85.5508C75.3671 85.6059 75.4114 85.6525 75.4649 85.6867C75.5183 85.7208 75.5791 85.7414 75.6422 85.7467C75.7052 85.7519 75.7686 85.7418 75.8269 85.717C75.8852 85.6923 75.9367 85.6537 75.9769 85.6045C76.0646 85.4397 76.1076 85.2546 76.1015 85.0678L76.3328 81.6663C76.3642 81.4549 76.3397 81.2388 76.2617 81.04C76.1328 80.8713 75.9763 80.7259 75.7988 80.6101L74.107 79.4645C73.7229 79.2126 73.4149 78.8597 73.2164 78.4441C73.0435 77.9322 72.9827 77.3887 73.0383 76.8509L73.1985 74.5596C73.3055 73.1635 73.5547 72.2864 73.9468 71.9461C74.3562 71.606 75.2465 71.4628 76.6003 71.5703C77.9537 71.6595 78.8088 71.8923 79.1644 72.2861C79.52 72.6799 79.6455 73.5747 79.5388 75.0069Z" fill="white"/>
<path fill-rule="evenodd" clip-rule="evenodd" d="M88.1046 75.8303L86.5016 81.8271L86.7512 81.8808C86.8324 81.9174 86.9205 81.9363 87.0095 81.9363C87.0985 81.9363 87.1866 81.9174 87.2679 81.8808C87.4388 81.6544 87.5546 81.3908 87.6058 81.1113L88.6925 77.0481C88.8171 76.5828 88.8527 76.2782 88.7815 76.1713C88.7277 76.046 88.5688 75.9574 88.3007 75.8847L88.1049 75.8306L88.1046 75.8303ZM86.0031 73.0918L89.2441 73.9509C90.4554 74.2909 91.1855 74.6841 91.4526 75.1326C91.7198 75.5978 91.6654 76.511 91.2928 77.9068L90.2949 81.63C89.9213 83.0265 89.5113 83.8675 89.0487 84.1352C88.5858 84.3854 87.7666 84.3679 86.5733 84.0456L85.9676 83.8846L84.4898 89.3981L81.836 88.6823L86.0031 73.0918Z" fill="white"/>
<path fill-rule="evenodd" clip-rule="evenodd" d="M96.3329 80.1797L92.949 86.7315L93.804 87.1076L96.4043 80.2158L96.3329 80.1797ZM95.9767 76.5283L99.3247 78.014L94.267 93.4264L91.8271 92.3342L93.0381 89.112L91.9873 88.6467L90.4199 91.7079L87.998 90.6157L95.9767 76.5283Z" fill="white"/>
<path fill-rule="evenodd" clip-rule="evenodd" d="M105.523 84.154L102.709 88.1994C102.748 88.217 102.784 88.2412 102.816 88.2709C102.851 88.3067 102.887 88.3424 102.905 88.3424C102.969 88.4059 103.049 88.4522 103.136 88.4772C103.223 88.5022 103.315 88.5052 103.403 88.4857C103.546 88.4499 103.707 88.2889 103.884 88.0207L105.665 85.4963C105.932 85.0845 106.074 84.834 106.039 84.6907C106.021 84.5655 105.896 84.4222 105.682 84.2612L105.522 84.1536L105.523 84.154ZM104.489 80.8423L107.232 82.7935C108.229 83.4739 108.763 84.1002 108.853 84.655C108.942 85.2098 108.603 86.0695 107.819 87.1971L106.608 88.9155C106.092 89.6677 105.647 90.133 105.29 90.3297C104.889 90.5346 104.427 90.5855 103.99 90.473C104.246 90.8239 104.366 91.2564 104.329 91.6898C104.206 92.2523 103.956 92.7791 103.599 93.2295L100.465 97.7226L98.2204 96.1474L101.64 91.2594C101.763 91.1002 101.831 90.9058 101.836 90.7046C101.823 90.6139 101.788 90.5278 101.736 90.4531C101.683 90.3785 101.613 90.3174 101.532 90.275C101.501 90.2499 101.464 90.2316 101.425 90.2213C101.39 90.2032 101.354 90.1675 101.337 90.1675L97.5068 95.6449L95.263 94.0703L104.489 80.8423Z" fill="white"/>
<path fill-rule="evenodd" clip-rule="evenodd" d="M113.074 87.3403L114.908 89.2555L110.296 93.7306L110.385 93.7846L115.673 90.0431L117.561 92.0124L111.364 95.8428L106.129 103.361L104.223 101.375L109.031 95.1105L108.96 95.039L103.35 100.481L101.498 98.545L113.074 87.3403Z" fill="white"/>
</svg>
