<svg width="14" height="16" viewBox="0 0 14 16" fill="none" xmlns="http://www.w3.org/2000/svg">
<path fill-rule="evenodd" clip-rule="evenodd" d="M6.60873 0C2.96141 0 0 2.96141 0 6.60873C0 8.44596 0.893919 10.3465 2.04488 11.9347C3.58124 14.0547 5.50125 15.6022 5.51794 15.6157C6.15482 16.1281 7.06265 16.1281 7.69952 15.6157C7.71622 15.6022 9.63623 14.0547 11.1726 11.9347C12.3235 10.3465 13.2175 8.44596 13.2175 6.60873C13.2175 2.96141 10.2561 0 6.60873 0ZM6.60873 0.695656C9.8724 0.695656 12.5218 3.34506 12.5218 6.60873C12.5218 8.30822 11.6738 10.0574 10.6091 11.5263C9.12249 13.5778 7.26335 15.0735 7.26335 15.0735C6.88108 15.381 6.33638 15.3813 5.95412 15.0738C5.95412 15.0738 4.09498 13.5778 2.60836 11.5263C1.54366 10.0574 0.695656 8.30822 0.695656 6.60873C0.695656 3.34506 3.34506 0.695656 6.60873 0.695656Z" fill="#003366"/>
<path fill-rule="evenodd" clip-rule="evenodd" d="M6.60893 4.17407C5.26527 4.17407 4.17413 5.26521 4.17413 6.60887C4.17413 7.95253 5.26527 9.04366 6.60893 9.04366C7.95259 9.04366 9.04373 7.95253 9.04373 6.60887C9.04373 5.26521 7.95259 4.17407 6.60893 4.17407ZM6.60893 4.86973C7.56893 4.86973 8.34807 5.64886 8.34807 6.60887C8.34807 7.56887 7.56893 8.34801 6.60893 8.34801C5.64892 8.34801 4.86979 7.56887 4.86979 6.60887C4.86979 5.64886 5.64892 4.86973 6.60893 4.86973Z" fill="#003366"/>
</svg>
