<svg width="15" height="16" viewBox="0 0 15 16" fill="none" xmlns="http://www.w3.org/2000/svg">
<g clip-path="url(#clip0_1_11716)">
<path d="M14.0098 15.5729C13.8313 12.6015 11.8043 10.1293 9.06342 9.28922C10.7236 8.51328 11.8764 6.82707 11.8764 4.87218C11.8764 2.18145 9.69499 0 7.00427 0C4.31354 0 2.13209 2.18145 2.13209 4.87218C2.13209 6.82707 3.28497 8.51328 4.94712 9.28922C2.20627 10.1293 0.179205 12.6015 0.000758685 15.5729C-0.0132764 15.8035 0.169179 16 0.401761 16C0.612287 16 0.788728 15.8356 0.802764 15.6251C0.99324 12.3669 3.698 9.78446 7.00427 9.78446C10.3105 9.78446 13.0153 12.3669 13.2078 15.6251C13.2198 15.8356 13.3962 16 13.6088 16C13.8414 16 14.0238 15.8035 14.0098 15.5729ZM2.93409 4.87218C2.93409 2.62456 4.75665 0.802005 7.00427 0.802005C9.25189 0.802005 11.0744 2.62456 11.0744 4.87218C11.0744 7.1198 9.25189 8.94236 7.00427 8.94236C4.75665 8.94236 2.93409 7.1198 2.93409 4.87218Z" fill="#003366"/>
</g>
<defs>
<clipPath id="clip0_1_11716">
<rect width="14.6667" height="16" fill="white"/>
</clipPath>
</defs>
</svg>
