<svg width="150" height="108" viewBox="0 0 150 108" fill="none" xmlns="http://www.w3.org/2000/svg">
<path fill-rule="evenodd" clip-rule="evenodd" d="M26.9584 0.0242338C35.5592 -0.0399506 43.1971 4.00367 48.2035 10.2296L0.257742 58.6246L0.00100425 27.2384C-0.127365 12.3476 12.0677 0.0884181 26.9584 0.0242338ZM142.169 7.9831C152.631 18.5093 152.631 35.7749 142.041 46.3012L95.5716 92.2572L78.8194 75.3767L119.897 34.2345C120.989 33.2076 120.989 31.4104 119.897 30.3193C118.806 29.2281 117.073 29.2281 115.982 30.3193L92.6191 53.7466L91.5279 54.7735C76.4446 69.8568 61.3613 84.6834 46.1496 99.7026C35.5592 110.229 18.3577 110.165 7.8315 99.5742C-2.63056 88.9838 -2.63056 71.7824 7.95987 61.2561L54.4294 15.3001L71.1815 32.1806L35.1099 68.2522C34.0187 69.3434 34.0187 71.1405 35.1099 72.2317C36.201 73.3228 37.934 73.3228 39.0251 72.2317L57.3818 53.8108L59.7567 51.5001C74.3907 36.8661 89.0889 22.4246 103.851 7.85473C114.442 -2.67151 131.643 -2.60733 142.169 7.9831ZM122.786 107.533C114.185 107.597 106.547 103.554 101.541 97.3278L149.486 48.4193L149.743 80.3189C149.872 95.2097 137.677 107.469 122.786 107.533Z" fill="url(#paint0_linear_32_6747)"/>
<defs>
<linearGradient id="paint0_linear_32_6747" x1="149.426" y1="0.353745" x2="-3.77273" y2="105.065" gradientUnits="userSpaceOnUse">
<stop stop-color="#A478D1"/>
<stop offset="1" stop-color="#4478D1"/>
</linearGradient>
</defs>
</svg>
